<svg width="24" height="24" viewBox="0 0 24 24" fill="none" xmlns="http://www.w3.org/2000/svg">
<path d="M19.3799 15.98V17.02C19.3799 18.61 18.7799 19.25 17.2599 19.25H5.37988V13.75H17.2599C18.7799 13.75 19.3799 14.39 19.3799 15.98Z" fill="#555F62"/>
<path d="M14.3799 7.48V8.52C14.3799 10.11 13.7699 10.75 12.2599 10.75H5.37988V5.25H12.2599C13.7699 5.25 14.3799 5.89 14.3799 7.48Z" fill="#555F62"/>
<path d="M5.3801 22C4.9701 22 4.6301 21.66 4.6301 21.25V2.75C4.6201 2.33 4.9601 2 5.3801 2C5.8001 2 6.1301 2.34 6.1301 2.75V21.25C6.1201 21.66 5.7901 22 5.3801 22Z" fill="#555F62"/>
</svg>
