<svg width="24" height="24" viewBox="0 0 24 24" fill="none" xmlns="http://www.w3.org/2000/svg">
<path d="M4.62012 15.98V17.02C4.62012 18.61 5.22012 19.25 6.74012 19.25H18.6201V13.75H6.74012C5.22012 13.75 4.62012 14.39 4.62012 15.98Z" fill="#555F62"/>
<path d="M9.62012 7.48V8.52C9.62012 10.11 10.2301 10.75 11.7401 10.75H18.6201V5.25H11.7401C10.2301 5.25 9.62012 5.89 9.62012 7.48Z" fill="#555F62"/>
<path d="M18.6201 22C18.2101 22 17.8701 21.66 17.8701 21.25V2.75C17.8701 2.34 18.2101 2 18.6201 2C19.0301 2 19.3701 2.34 19.3701 2.75V21.25C19.3801 21.66 19.0401 22 18.6201 22Z" fill="#555F62"/>
</svg>
