<svg width="24" height="24" viewBox="0 0 24 24" fill="none" xmlns="http://www.w3.org/2000/svg">
<path d="M16.8199 1.91016H7.17995C5.05995 1.91016 3.31995 3.65016 3.31995 5.77016V19.8602C3.31995 21.6602 4.60995 22.4202 6.18995 21.5502L11.0699 18.8402C11.5899 18.5502 12.4299 18.5502 12.9399 18.8402L17.8199 21.5502C19.3999 22.4302 20.6899 21.6702 20.6899 19.8602V5.77016C20.6799 3.65016 18.9499 1.91016 16.8199 1.91016ZM15.6199 9.03016L11.6199 13.0302C11.4699 13.1802 11.2799 13.2502 11.0899 13.2502C10.8999 13.2502 10.7099 13.1802 10.5599 13.0302L9.05995 11.5302C8.76995 11.2402 8.76995 10.7602 9.05995 10.4702C9.34995 10.1802 9.82995 10.1802 10.1199 10.4702L11.0899 11.4402L14.5599 7.97016C14.8499 7.68016 15.3299 7.68016 15.6199 7.97016C15.9099 8.26016 15.9099 8.74016 15.6199 9.03016Z" fill="#555F62"/>
</svg>
