<svg width="24" height="24" viewBox="0 0 24 24" fill="none" xmlns="http://www.w3.org/2000/svg">
<path d="M21.75 6.7302C21.75 6.5302 21.67 6.3402 21.53 6.2002L17.81 2.4802C17.52 2.1902 17.04 2.1902 16.75 2.4802C16.46 2.7702 16.46 3.2502 16.75 3.5402L19.2 5.9902H3C2.59 5.9902 2.25 6.3302 2.25 6.7402C2.25 7.1502 2.59 7.4802 3 7.4802H19.19L16.75 9.9202C16.46 10.2102 16.46 10.6902 16.75 10.9802C16.9 11.1302 17.09 11.2002 17.28 11.2002C17.47 11.2002 17.66 11.1302 17.81 10.9802L21.52 7.2702C21.59 7.2002 21.65 7.1102 21.69 7.0102C21.69 7.0002 21.69 6.9902 21.7 6.9802C21.73 6.9002 21.75 6.8202 21.75 6.7302Z" fill="#555F62"/>
<path d="M21 16.5202H4.81L7.25 14.0802C7.54 13.7902 7.54 13.3102 7.25 13.0202C6.96 12.7302 6.48 12.7302 6.19 13.0202L2.48 16.7302C2.41 16.8002 2.35 16.8902 2.31 16.9902C2.31 17.0002 2.31 17.0102 2.3 17.0202C2.27 17.1002 2.25 17.1902 2.25 17.2802C2.25 17.4802 2.33 17.6702 2.47 17.8102L6.19 21.5302C6.34 21.6802 6.53 21.7502 6.72 21.7502C6.91 21.7502 7.1 21.6802 7.25 21.5302C7.54 21.2402 7.54 20.7602 7.25 20.4702L4.8 18.0202H21C21.41 18.0202 21.75 17.6802 21.75 17.2702C21.75 16.8602 21.41 16.5202 21 16.5202Z" fill="#555F62"/>
</svg>
