<svg width="24" height="24" viewBox="0 0 24 24" fill="none" xmlns="http://www.w3.org/2000/svg">
<path fill-rule="evenodd" clip-rule="evenodd" d="M2 12C2 10.0222 2.58649 8.08879 3.6853 6.4443C4.78412 4.7998 6.34591 3.51808 8.17317 2.7612C10.0004 2.00433 12.0111 1.8063 13.9509 2.19215C15.8907 2.57801 17.6725 3.53039 19.0711 4.92892C20.4696 6.32745 21.422 8.10927 21.8079 10.0491C22.1937 11.9889 21.9957 13.9996 21.2388 15.8268C20.4819 17.6541 19.2002 19.2159 17.5557 20.3147C15.9112 21.4135 13.9778 22 12 22C9.34784 22 6.8043 20.9464 4.92893 19.0711C3.05357 17.1957 2 14.6522 2 12H2ZM13.0942 5.08334C13.0196 5.11587 12.9563 5.16949 12.9118 5.23761C12.8674 5.30572 12.8439 5.38534 12.8442 5.46667V7.62584C12.8442 7.69052 12.8592 7.75431 12.8882 7.81217C12.9171 7.87003 12.9591 7.92035 13.0108 7.95916L15.9275 10.0808C15.9909 10.1271 16.066 10.1546 16.1443 10.16C16.2226 10.1655 16.3008 10.1487 16.37 10.1117L17.9817 9.24749C18.043 9.21459 18.0951 9.16686 18.1333 9.10863C18.1714 9.05041 18.1944 8.98354 18.2 8.91416L18.4325 6.28749C18.4376 6.22844 18.4301 6.169 18.4104 6.1131C18.3907 6.0572 18.3593 6.00614 18.3183 5.96334C17.5831 5.19104 16.7133 4.55906 15.7517 4.09833C15.6983 4.07276 15.64 4.05886 15.5808 4.05757C15.5216 4.05627 15.4628 4.06761 15.4083 4.09083L13.0942 5.08334ZM5.69917 5.94666C6.43291 5.18077 7.29942 4.55425 8.25667 4.09749C8.31008 4.07192 8.36832 4.05802 8.42753 4.05673C8.48673 4.05543 8.54553 4.06677 8.6 4.08999L10.9242 5.08082C10.9987 5.11335 11.0621 5.16697 11.1065 5.23509C11.1509 5.3032 11.1745 5.38285 11.1742 5.46417V7.63082C11.1736 7.69593 11.1578 7.76001 11.1279 7.81789C11.0981 7.87578 11.0552 7.92589 11.0025 7.96417L8.16917 10.0292C8.10792 10.0741 8.03556 10.1014 7.95992 10.1081C7.88429 10.1149 7.80824 10.1008 7.74 10.0675L6.04917 9.24167C5.98518 9.21057 5.93022 9.16363 5.88952 9.10528C5.84882 9.04693 5.82374 8.97913 5.81667 8.90834L5.58333 6.27998C5.57745 6.21974 5.58477 6.15895 5.60477 6.10181C5.62477 6.04468 5.65699 5.99259 5.69917 5.94917V5.94666ZM7.5325 16.8075L8.47167 15.7592C8.51917 15.705 8.55182 15.6394 8.56642 15.5689C8.58103 15.4984 8.57709 15.4252 8.555 15.3567L7.49084 12.0683C7.45744 11.966 7.38577 11.8806 7.29084 11.83L5.54083 10.8908C5.45761 10.8461 5.36163 10.8309 5.26865 10.8479C5.17567 10.8648 5.09123 10.9129 5.02917 10.9842L3.42833 12.8333C3.39074 12.8777 3.36287 12.9295 3.34651 12.9854C3.33015 13.0412 3.32566 13.0998 3.33333 13.1575C3.47173 14.2024 3.7993 15.2133 4.3 16.1408C4.32821 16.1928 4.36718 16.2383 4.41431 16.274C4.46144 16.3098 4.51565 16.3351 4.57333 16.3483L7.13 16.9375C7.20262 16.9543 7.27842 16.9514 7.34951 16.929C7.42059 16.9065 7.48436 16.8655 7.53417 16.81L7.5325 16.8075ZM15.1367 18.2617L13.8558 20.4067C13.8254 20.4578 13.7843 20.5018 13.7355 20.5357C13.6866 20.5696 13.631 20.5927 13.5725 20.6033C12.5419 20.791 11.4861 20.7924 10.455 20.6075C10.3963 20.597 10.3406 20.5739 10.2916 20.54C10.2425 20.5061 10.2014 20.462 10.1708 20.4108L8.88334 18.2625C8.83759 18.1861 8.81752 18.0971 8.82607 18.0084C8.83462 17.9198 8.87133 17.8363 8.93084 17.77L9.86917 16.7225C9.90833 16.6789 9.95626 16.644 10.0098 16.6202C10.0634 16.5963 10.1214 16.5841 10.18 16.5842H13.8408C13.8995 16.5841 13.9575 16.5963 14.011 16.6202C14.0646 16.644 14.1125 16.6789 14.1517 16.7225L15.0892 17.77C15.1493 17.8362 15.1866 17.92 15.1954 18.009C15.2043 18.098 15.1843 18.1874 15.1383 18.2642L15.1367 18.2617ZM19.4267 16.345C19.4844 16.3318 19.5386 16.3065 19.5857 16.2707C19.6328 16.2349 19.6718 16.1895 19.7 16.1375V16.1375C20.2014 15.2115 20.53 14.202 20.67 13.1583C20.6778 13.0998 20.6731 13.0402 20.6562 12.9836C20.6392 12.927 20.6104 12.8746 20.5717 12.83L18.97 10.9767C18.908 10.9056 18.8237 10.8576 18.7309 10.8407C18.6381 10.8237 18.5423 10.8388 18.4592 10.8833L16.7092 11.8225C16.6142 11.8731 16.5426 11.9585 16.5092 12.0608L15.445 15.3492C15.4221 15.4183 15.4178 15.4923 15.4324 15.5636C15.447 15.635 15.4801 15.7012 15.5283 15.7558L16.4675 16.8042C16.5173 16.8596 16.5811 16.9007 16.6522 16.9231C16.7233 16.9456 16.7991 16.9485 16.8717 16.9317L19.4267 16.345Z" fill="#555F62"/>
</svg>
