<svg width="24" height="24" viewBox="0 0 24 24" fill="none" xmlns="http://www.w3.org/2000/svg">
<path d="M11.65 2.35002L6.36001 7.64002C6.16001 7.84002 6.16001 8.15002 6.36001 8.35002L7.65 9.64002C7.85 9.84002 8.16001 9.84002 8.36001 9.64002L11.65 6.35002C11.85 6.15002 12.16 6.15002 12.36 6.35002L15.65 9.64002C15.85 9.84002 16.16 9.84002 16.36 9.64002L17.65 8.35002C17.85 8.15002 17.85 7.84002 17.65 7.64002L12.36 2.35002C12.16 2.16002 11.84 2.16002 11.65 2.35002Z" fill="#555F62"/>
<path d="M11.65 21.65L6.36001 16.36C6.16001 16.16 6.16001 15.85 6.36001 15.65L7.65 14.36C7.85 14.16 8.16001 14.16 8.36001 14.36L11.65 17.65C11.85 17.85 12.16 17.85 12.36 17.65L15.65 14.36C15.85 14.16 16.16 14.16 16.36 14.36L17.65 15.65C17.85 15.85 17.85 16.16 17.65 16.36L12.36 21.65C12.16 21.84 11.84 21.84 11.65 21.65Z" fill="#555F62"/>
<path d="M20.1 10.1L21.64 11.64C21.84 11.84 21.84 12.15 21.64 12.35L20.1 13.89C19.9 14.09 19.59 14.09 19.39 13.89L17.85 12.35C17.65 12.15 17.65 11.84 17.85 11.64L19.39 10.1C19.59 9.91002 19.91 9.91002 20.1 10.1Z" fill="#555F62"/>
<path d="M4.60001 10.1L6.14001 11.64C6.34001 11.84 6.34001 12.15 6.14001 12.35L4.60001 13.89C4.40001 14.09 4.09001 14.09 3.89001 13.89L2.35001 12.35C2.15001 12.15 2.15001 11.84 2.35001 11.64L3.89001 10.1C4.09001 9.91002 4.41001 9.91002 4.60001 10.1Z" fill="#555F62"/>
<path d="M12.35 9.87998L14.12 11.65C14.32 11.85 14.32 12.16 14.12 12.36L12.35 14.13C12.15 14.33 11.84 14.33 11.64 14.13L9.87 12.36C9.67 12.16 9.67 11.85 9.87 11.65L11.64 9.87998C11.84 9.67998 12.16 9.67998 12.35 9.87998Z" fill="#555F62"/>
</svg>
