<svg width="24" height="24" viewBox="0 0 24 24" fill="none" xmlns="http://www.w3.org/2000/svg">
<path d="M11.4 2.35002L6.25001 7.50002C6.05001 7.70002 6.05001 8.01002 6.25001 8.21002L7.98002 9.94002C8.18002 10.14 8.49001 10.14 8.69001 9.94002L13.84 4.79002C14.04 4.59002 14.04 4.28002 13.84 4.08002L12.11 2.35002C11.91 2.16002 11.6 2.16002 11.4 2.35002Z" fill="#555F62"/>
<path d="M15.3 6.26011L6.25001 15.3101C6.05001 15.5101 6.05001 15.8201 6.25001 16.0201L7.98002 17.7501C8.18002 17.9501 8.49001 17.9501 8.69001 17.7501L17.74 8.70011C17.94 8.50011 17.94 8.19011 17.74 7.99011L16.01 6.26011C15.82 6.06011 15.5 6.06011 15.3 6.26011Z" fill="#555F62"/>
<path d="M19.21 10.16L10.16 19.21C9.96001 19.41 9.96001 19.72 10.16 19.92L11.89 21.65C12.09 21.85 12.4 21.85 12.6 21.65L21.65 12.6C21.85 12.4 21.85 12.09 21.65 11.89L19.92 10.16C19.72 9.96001 19.4 9.96001 19.21 10.16Z" fill="#555F62"/>
<path d="M4.09 13.84L2.35999 12.11C2.15999 11.91 2.15999 11.6 2.35999 11.4L4.09 9.67002C4.29 9.47002 4.59999 9.47002 4.79999 9.67002L6.53 11.4C6.73 11.6 6.73 11.91 6.53 12.11L4.79999 13.84C4.59999 14.04 4.28 14.04 4.09 13.84Z" fill="#555F62"/>
</svg>
