<svg width="24" height="24" viewBox="0 0 24 24" fill="none" xmlns="http://www.w3.org/2000/svg">
<path d="M23.53 12.0502C23.24 11.7602 22.76 11.7602 22.47 12.0502L22.01 12.5102V12.0002C22.01 6.48023 17.52 1.99023 12 1.99023C8.95 1.99023 6.1 3.36023 4.19 5.74023C3.93 6.06023 3.98 6.54023 4.31 6.80023C4.63 7.05023 5.1 7.00023 5.36 6.68023C6.99 4.65023 9.41 3.49023 12 3.49023C16.69 3.49023 20.51 7.31023 20.51 12.0002V12.5002L20.05 12.0402C19.76 11.7502 19.28 11.7502 18.99 12.0402C18.7 12.3302 18.7 12.8102 18.99 13.1002L20.73 14.8402C20.8 14.9102 20.88 14.9602 20.97 15.0002C21.06 15.0402 21.16 15.0602 21.26 15.0602C21.36 15.0602 21.45 15.0402 21.55 15.0002C21.64 14.9602 21.72 14.9102 21.79 14.8402L23.53 13.1002C23.82 12.8202 23.82 12.3402 23.53 12.0502Z" fill="#555F62"/>
<path d="M19.6899 17.2002C19.3699 16.9402 18.8899 16.9902 18.6399 17.3202C17.0099 19.3502 14.5899 20.5102 11.9999 20.5102C7.30994 20.5102 3.48994 16.6902 3.48994 12.0002V11.5002L3.94994 11.9602C4.09994 12.1102 4.28994 12.1802 4.47994 12.1802C4.66994 12.1802 4.85994 12.1002 4.99994 11.9502C5.28994 11.6602 5.28994 11.1802 4.99994 10.8902L3.26994 9.15018C3.19994 9.09018 3.10994 9.03018 3.01994 8.99018C2.83994 8.91018 2.62994 8.91018 2.44994 8.99018C2.35994 9.03018 2.27994 9.09018 2.20994 9.15018L0.469941 10.8902C0.179941 11.1802 0.179941 11.6602 0.469941 11.9502C0.759941 12.2402 1.23994 12.2402 1.52994 11.9502L1.98994 11.4902V12.0002C1.98994 17.5202 6.47994 22.0102 11.9999 22.0102C15.0499 22.0102 17.8999 20.6402 19.8099 18.2602C20.0699 17.9402 20.0199 17.4602 19.6899 17.2002Z" fill="#555F62"/>
<path d="M15.45 11.64C15.72 11.24 15.87 10.77 15.87 10.25C15.87 8.92 14.7 7.75 13.37 7.75H12.55V6.75C12.55 6.34 12.21 6 11.8 6C11.39 6 11.05 6.34 11.05 6.75V7.75H9C8.59 7.75 8.25 8.09 8.25 8.5V12V15.5C8.25 15.91 8.59 16.25 9 16.25H11.05V17.25C11.05 17.66 11.39 18 11.8 18C12.21 18 12.55 17.66 12.55 17.25V16.25H14C15.52 16.25 16.75 15.13 16.75 13.75C16.75 12.86 16.23 12.08 15.45 11.64ZM9.75 9.25H13.37C13.92 9.25 14.37 9.8 14.37 10.25C14.37 10.8 13.92 11.25 13.37 11.25H9.75V9.25ZM14 14.75H9.75V12.75H13.37H14C14.69 12.75 15.25 13.2 15.25 13.75C15.25 14.3 14.69 14.75 14 14.75Z" fill="#555F62"/>
</svg>
