<svg width="24" height="24" viewBox="0 0 24 24" fill="none" xmlns="http://www.w3.org/2000/svg">
<path d="M17 4.96V12.08C17 14.07 15.59 14.84 13.86 13.8L12.54 13C12.24 12.82 11.76 12.82 11.46 13L10.14 13.8C8.41 14.84 7 14.07 7 12.08V4.99C7.01 3 8.01 2 10 2H14C15.98 2 16.98 2.99 17 4.96Z" fill="#555F62"/>
<path d="M22 11.9V14.93C22 19.98 20 22 15 22H9C4 22 2 19.98 2 14.93V11.9C2 9.20998 2.57 7.37998 3.85 6.25998C4.5 5.70998 5.5 6.18998 5.5 7.03998V12.08C5.5 13.57 6.11 14.77 7.17 15.37C8.24 15.98 9.6 15.87 10.92 15.08L12 14.43L13.09 15.08C13.83 15.53 14.6 15.76 15.32 15.76C15.86 15.76 16.37 15.63 16.83 15.37C17.89 14.77 18.5 13.57 18.5 12.08V7.02998C18.5 6.17998 19.51 5.69998 20.15 6.25998C21.43 7.37998 22 9.20998 22 11.9Z" fill="#555F62"/>
</svg>
