<svg width="24" height="24" viewBox="0 0 24 24" fill="none" xmlns="http://www.w3.org/2000/svg">
<path d="M5.33 19.42C5.22 19.42 5.1 19.39 5 19.34L2.78 18.23C2.53 18.1 2.37 17.84 2.37 17.56V14.78C2.37 14.37 2.71 14.03 3.12 14.03C3.53 14.03 3.87 14.37 3.87 14.78V17.09L5.67 18C6.04 18.18 6.19 18.63 6 19C5.87 19.26 5.61 19.42 5.33 19.42Z" fill="#555F62"/>
<path d="M12 22.75C11.94 22.75 11.88 22.74 11.83 22.73C11.77 22.72 11.71 22.69 11.65 22.66L9.43996 21.56C9.06996 21.37 8.91996 20.92 9.09996 20.55C9.28996 20.18 9.73996 20.03 10.11 20.21L11.25 20.78V19.22C11.25 18.81 11.59 18.47 12 18.47C12.41 18.47 12.75 18.81 12.75 19.22V20.78L13.89 20.21C14.26 20.03 14.71 20.18 14.9 20.55C15.09 20.92 14.94 21.37 14.56 21.56L12.35 22.66C12.29 22.69 12.23 22.71 12.17 22.73C12.11 22.74 12.06 22.75 12 22.75Z" fill="#555F62"/>
<path d="M18.6701 19.42C18.4001 19.42 18.1301 19.27 18.0001 19.01C17.8101 18.64 17.9601 18.19 18.3401 18L20.1501 17.1V14.79C20.1501 14.38 20.4901 14.04 20.9001 14.04C21.3101 14.04 21.6501 14.38 21.6501 14.79V17.57C21.6501 17.85 21.4901 18.11 21.2401 18.24L19.0001 19.34C18.8901 19.39 18.7801 19.42 18.6701 19.42Z" fill="#555F62"/>
<path d="M12 14.42C11.59 14.42 11.25 14.08 11.25 13.67V11.36L9.43996 10.46C9.06996 10.27 8.91996 9.82005 9.09996 9.45005C9.28996 9.08005 9.73996 8.93004 10.11 9.11004L12 10.05L13.89 9.11004C14.26 8.93004 14.71 9.07005 14.9 9.45005C15.09 9.82005 14.94 10.27 14.56 10.46L12.75 11.36V13.67C12.75 14.08 12.41 14.42 12 14.42Z" fill="#555F62"/>
<path d="M3.10999 9.97002C2.69999 9.97002 2.35999 9.63002 2.35999 9.22002V6.46002V6.45002C2.35999 6.39002 2.36999 6.33002 2.37999 6.28002C2.39999 6.19002 2.42999 6.12002 2.46999 6.05002C2.49999 6.00002 2.53999 5.96002 2.57999 5.92002C2.61999 5.88002 2.66999 5.84002 2.71999 5.81002C2.73999 5.80002 2.76999 5.78002 2.78999 5.77002L4.99999 4.66002C5.36999 4.48002 5.81999 4.63002 5.99999 5.00002C6.18999 5.37002 6.03999 5.82002 5.66999 6.00002L4.78999 6.44002L5.66999 6.88002C6.03999 7.07002 6.18999 7.52002 5.99999 7.89002C5.81999 8.26002 5.36999 8.41002 4.99999 8.23002L3.85999 7.66002V9.22002C3.85999 9.64002 3.52999 9.97002 3.10999 9.97002Z" fill="#555F62"/>
<path d="M14.2201 3.86006C14.1101 3.86006 13.9901 3.83006 13.8901 3.78006L12.0001 2.84006L10.1101 3.78006C9.74005 3.97006 9.29005 3.82006 9.11005 3.45006C8.92005 3.08006 9.07005 2.63006 9.44005 2.44006L11.6601 1.33006C11.8701 1.22006 12.1201 1.22006 12.3301 1.33006L14.5501 2.44006C14.9201 2.63006 15.0701 3.08006 14.8901 3.45006C14.7601 3.71006 14.5001 3.86006 14.2201 3.86006Z" fill="#555F62"/>
<path d="M20.8899 9.97002C20.4799 9.97002 20.1399 9.63002 20.1399 9.22002V7.66002L18.9999 8.23002C18.6299 8.41002 18.1799 8.26002 17.9999 7.89002C17.8099 7.52002 17.9599 7.07002 18.3399 6.88002L19.2199 6.44002L18.3299 6.00002C17.9599 5.82002 17.8099 5.37002 17.9999 5.00002C18.1899 4.63002 18.6299 4.48002 18.9999 4.66002L21.2099 5.76002C21.2299 5.77002 21.2599 5.78002 21.2799 5.80002C21.3399 5.83002 21.3899 5.88002 21.4399 5.93002C21.4699 5.97002 21.4999 6.01002 21.5299 6.05002C21.5699 6.12002 21.5999 6.19002 21.6199 6.27002C21.6299 6.33002 21.6399 6.39002 21.6399 6.44002V6.45002V9.21002C21.6399 9.64002 21.2999 9.97002 20.8899 9.97002Z" fill="#555F62"/>
</svg>
