<svg width="24" height="24" viewBox="0 0 24 24" fill="none" xmlns="http://www.w3.org/2000/svg">
<path d="M11.13 15.88C10.88 15.88 10.63 15.75 10.49 15.52C10.28 15.17 10.39 14.7 10.75 14.49L11.64 13.96V12.88C11.64 12.47 11.98 12.13 12.39 12.13C12.8 12.13 13.14 12.47 13.14 12.88V14.38C13.14 14.64 13 14.89 12.78 15.02L11.53 15.77C11.39 15.84 11.26 15.88 11.13 15.88Z" fill="#555F62"/>
<path d="M21.09 6.98002C20.24 6.04002 18.83 5.57002 16.76 5.57002H16.52V5.53002C16.52 3.85002 16.52 1.77002 12.76 1.77002H11.24C7.48004 1.77002 7.48004 3.85002 7.48004 5.53002V5.57002H7.24004C5.17004 5.57002 3.75004 6.04002 2.91004 6.98002C1.92004 8.09002 1.95004 9.56002 2.05004 10.57L2.06004 10.64L2.12912 11.446C2.14232 11.5999 2.22586 11.7392 2.35558 11.8232C2.63927 12.0068 2.94109 12.1995 3.23004 12.36C3.37004 12.45 3.52004 12.53 3.67004 12.61C4.80004 13.23 6.01004 13.72 7.25004 14.06C7.28004 16.65 9.40004 18.75 12 18.75C14.62 18.75 16.75 16.62 16.75 14V13.96C18.01 13.58 19.22 13.05 20.35 12.39C20.41 12.36 20.45 12.33 20.5 12.3C20.8949 12.0854 21.3045 11.8045 21.6782 11.5395C21.7941 11.4573 21.869 11.3293 21.8847 11.1881L21.9 11.05L21.95 10.58C21.96 10.52 21.96 10.47 21.97 10.4C22.05 9.40002 22.03 8.02002 21.09 6.98002ZM8.91004 5.53002C8.91004 3.83002 8.91004 3.19002 11.24 3.19002H12.76C15.09 3.19002 15.09 3.83002 15.09 5.53002V5.57002H8.91004V5.53002ZM12 17.25C10.35 17.25 8.98004 16.01 8.78004 14.41C8.76004 14.28 8.75004 14.14 8.75004 14C8.75004 12.21 10.21 10.75 12 10.75C13.79 10.75 15.25 12.21 15.25 14C15.25 14.12 15.24 14.23 15.23 14.34V14.35C15.05 15.98 13.67 17.25 12 17.25Z" fill="#555F62"/>
<path d="M21.0401 13.73C21.2888 13.5918 21.6115 13.792 21.5856 14.0754L21.2301 17.96C21.0201 19.96 20.2001 22 15.8001 22H8.1801C3.7801 22 2.9601 19.96 2.7601 17.97L2.41423 14.2667C2.38738 13.9792 2.69488 13.7849 2.9501 13.92V13.92C3.7301 14.35 4.5401 14.73 5.3701 15.03C5.6801 15.14 5.9001 15.4 5.9901 15.72C6.7401 18.32 9.1601 20.25 12.0001 20.25C14.8901 20.25 17.3301 18.28 18.0401 15.58C18.1201 15.26 18.3401 15 18.6501 14.88C19.4901 14.55 20.2901 14.16 21.0401 13.73V13.73Z" fill="#555F62"/>
</svg>
