<svg width="24" height="24" viewBox="0 0 24 24" fill="none" xmlns="http://www.w3.org/2000/svg">
<path d="M17.0401 10.6399L9.6901 3.28989L8.8201 2.41989C8.5301 2.12989 8.0501 2.12989 7.7601 2.41989C7.4701 2.70989 7.4701 3.18989 7.7601 3.47989L8.6301 4.34989L3.0001 9.97989C2.3601 10.6199 2.0201 11.2699 2.0001 11.9199C1.9801 12.6099 2.3201 13.2999 3.0001 13.9899L7.0101 17.9999C8.3501 19.3299 9.6901 19.3299 11.0201 17.9999L17.0401 11.9799C17.2401 11.7799 17.3301 11.5099 17.3101 11.2499C17.3001 11.0299 17.2001 10.7999 17.0401 10.6399Z" fill="#555F62"/>
<path d="M16 22.75H3C2.59 22.75 2.25 22.41 2.25 22C2.25 21.59 2.59 21.25 3 21.25H16C16.41 21.25 16.75 21.59 16.75 22C16.75 22.41 16.41 22.75 16 22.75Z" fill="#555F62"/>
<path d="M19.35 14.7801C19.09 14.5001 18.61 14.5001 18.35 14.7801C18.04 15.1201 16.5 16.8501 16.5 18.1701C16.5 19.4701 17.55 20.5201 18.85 20.5201C20.15 20.5201 21.2 19.4701 21.2 18.1701C21.2 16.8601 19.66 15.1201 19.35 14.7801Z" fill="#555F62"/>
</svg>
