<svg width="24" height="24" viewBox="0 0 24 24" fill="none" xmlns="http://www.w3.org/2000/svg">
<path d="M17.15 10C17.7023 10 18.15 9.55228 18.15 9C18.15 8.44772 17.7023 8 17.15 8C16.5977 8 16.15 8.44772 16.15 9C16.15 9.55228 16.5977 10 17.15 10Z" fill="#555F62"/>
<path d="M17.15 16C17.7023 16 18.15 15.5523 18.15 15C18.15 14.4477 17.7023 14 17.15 14C16.5977 14 16.15 14.4477 16.15 15C16.15 15.5523 16.5977 16 17.15 16Z" fill="#555F62"/>
<path d="M19.75 13C20.3023 13 20.75 12.5523 20.75 12C20.75 11.4477 20.3023 11 19.75 11C19.1977 11 18.75 11.4477 18.75 12C18.75 12.5523 19.1977 13 19.75 13Z" fill="#555F62"/>
<path d="M6.79999 10C7.35227 10 7.79999 9.55228 7.79999 9C7.79999 8.44772 7.35227 8 6.79999 8C6.2477 8 5.79999 8.44772 5.79999 9C5.79999 9.55228 6.2477 10 6.79999 10Z" fill="#555F62"/>
<path d="M6.79999 16C7.35227 16 7.79999 15.5523 7.79999 15C7.79999 14.4477 7.35227 14 6.79999 14C6.2477 14 5.79999 14.4477 5.79999 15C5.79999 15.5523 6.2477 16 6.79999 16Z" fill="#555F62"/>
<path d="M4.20001 13C4.7523 13 5.20001 12.5523 5.20001 12C5.20001 11.4477 4.7523 11 4.20001 11C3.64773 11 3.20001 11.4477 3.20001 12C3.20001 12.5523 3.64773 13 4.20001 13Z" fill="#555F62"/>
<path d="M15.9 6.19995C16.4523 6.19995 16.9 5.75224 16.9 5.19995C16.9 4.64767 16.4523 4.19995 15.9 4.19995C15.3477 4.19995 14.9 4.64767 14.9 5.19995C14.9 5.75224 15.3477 6.19995 15.9 6.19995Z" fill="#555F62"/>
<path d="M8.10001 6.19995C8.65229 6.19995 9.10001 5.75224 9.10001 5.19995C9.10001 4.64767 8.65229 4.19995 8.10001 4.19995C7.54772 4.19995 7.10001 4.64767 7.10001 5.19995C7.10001 5.75224 7.54772 6.19995 8.10001 6.19995Z" fill="#555F62"/>
<path d="M12.05 7C12.6023 7 13.05 6.55228 13.05 6C13.05 5.44772 12.6023 5 12.05 5C11.4977 5 11.05 5.44772 11.05 6C11.05 6.55228 11.4977 7 12.05 7Z" fill="#555F62"/>
<path d="M15.9 20C16.4523 20 16.9 19.5523 16.9 19C16.9 18.4477 16.4523 18 15.9 18C15.3477 18 14.9 18.4477 14.9 19C14.9 19.5523 15.3477 20 15.9 20Z" fill="#555F62"/>
<path d="M8.10001 20C8.65229 20 9.10001 19.5523 9.10001 19C9.10001 18.4477 8.65229 18 8.10001 18C7.54772 18 7.10001 18.4477 7.10001 19C7.10001 19.5523 7.54772 20 8.10001 20Z" fill="#555F62"/>
<path d="M12.05 19.2C12.6023 19.2 13.05 18.7522 13.05 18.2C13.05 17.6477 12.6023 17.2 12.05 17.2C11.4977 17.2 11.05 17.6477 11.05 18.2C11.05 18.7522 11.4977 19.2 12.05 19.2Z" fill="#555F62"/>
<path d="M13.75 10.25C14.4404 10.25 15 9.69036 15 9C15 8.30964 14.4404 7.75 13.75 7.75C13.0596 7.75 12.5 8.30964 12.5 9C12.5 9.69036 13.0596 10.25 13.75 10.25Z" fill="#555F62"/>
<path d="M10.25 10.25C10.9404 10.25 11.5 9.69036 11.5 9C11.5 8.30964 10.9404 7.75 10.25 7.75C9.55964 7.75 9 8.30964 9 9C9 9.69036 9.55964 10.25 10.25 10.25Z" fill="#555F62"/>
<path d="M15.5 13.25C16.1904 13.25 16.75 12.6904 16.75 12C16.75 11.3096 16.1904 10.75 15.5 10.75C14.8096 10.75 14.25 11.3096 14.25 12C14.25 12.6904 14.8096 13.25 15.5 13.25Z" fill="#555F62"/>
<path d="M8.5 13.25C9.19036 13.25 9.75 12.6904 9.75 12C9.75 11.3096 9.19036 10.75 8.5 10.75C7.80964 10.75 7.25 11.3096 7.25 12C7.25 12.6904 7.80964 13.25 8.5 13.25Z" fill="#555F62"/>
<path d="M10.25 16.25C10.9404 16.25 11.5 15.6904 11.5 15C11.5 14.3096 10.9404 13.75 10.25 13.75C9.55964 13.75 9 14.3096 9 15C9 15.6904 9.55964 16.25 10.25 16.25Z" fill="#555F62"/>
<path d="M13.75 16.25C14.4404 16.25 15 15.6904 15 15C15 14.3096 14.4404 13.75 13.75 13.75C13.0596 13.75 12.5 14.3096 12.5 15C12.5 15.6904 13.0596 16.25 13.75 16.25Z" fill="#555F62"/>
<path d="M12 3.33007C11.51 3.33007 11.12 2.94007 11.12 2.45007C11.12 1.96007 11.51 1.57007 12 1.57007C12.49 1.57007 12.88 1.96007 12.88 2.45007C12.88 2.94007 12.49 3.33007 12 3.33007Z" fill="#555F62"/>
<path d="M17.25 3.6001C16.83 3.6001 16.49 3.2601 16.49 2.8501C16.49 2.4401 16.83 2.1001 17.24 2.1001C17.65 2.1001 18 2.4401 18 2.8501C18 3.2601 17.67 3.6001 17.25 3.6001Z" fill="#555F62"/>
<path d="M6.75 3.6001C6.34 3.6001 6 3.2601 6 2.8501C6 2.4401 6.33 2.1001 6.75 2.1001H6.76001C7.17001 2.1001 7.51001 2.4401 7.51001 2.8501C7.51001 3.2601 7.17 3.6001 6.75 3.6001Z" fill="#555F62"/>
<path d="M12 22.3801C11.51 22.3801 11.12 21.9901 11.12 21.5001C11.12 21.0101 11.51 20.6201 12 20.6201C12.49 20.6201 12.88 21.0101 12.88 21.5001C12.88 21.9901 12.49 22.3801 12 22.3801Z" fill="#555F62"/>
<path d="M17.25 21.8501C16.83 21.8501 16.49 21.5101 16.49 21.1001C16.49 20.6901 16.83 20.3501 17.24 20.3501C17.65 20.3501 18 20.6901 18 21.1001C18 21.5101 17.67 21.8501 17.25 21.8501Z" fill="#555F62"/>
<path d="M6.75 21.8501C6.34 21.8501 6 21.5101 6 21.1001C6 20.6901 6.33 20.3501 6.75 20.3501H6.76001C7.17001 20.3501 7.51001 20.6901 7.51001 21.1001C7.51001 21.5101 7.17 21.8501 6.75 21.8501Z" fill="#555F62"/>
<path d="M1.54999 12.8801C1.06999 12.8801 0.670013 12.4901 0.670013 12.0101V12.0001C0.670013 11.5201 1.05999 11.1201 1.54999 11.1201C2.03999 11.1201 2.42999 11.5101 2.42999 12.0001C2.42999 12.4901 2.02999 12.8801 1.54999 12.8801Z" fill="#555F62"/>
<path d="M3.75 17.75C3.34 17.75 3 17.42 3 17V16.99C3 16.58 3.34 16.24 3.75 16.24C4.16 16.24 4.5 16.58 4.5 16.99C4.5 17.4 4.16 17.75 3.75 17.75Z" fill="#555F62"/>
<path d="M3.75 7.76001C3.34 7.76001 3 7.42001 3 7.01001C3 6.60001 3.34 6.26001 3.75 6.26001C4.16 6.26001 4.5 6.59001 4.5 7.00001V7.01001C4.5 7.42001 4.16 7.76001 3.75 7.76001Z" fill="#555F62"/>
<path d="M22.5 12.8801C22.02 12.8801 21.62 12.4901 21.62 12.0101V12.0001C21.62 11.5201 22.01 11.1201 22.5 11.1201C22.99 11.1201 23.38 11.5101 23.38 12.0001C23.38 12.4901 22.98 12.8801 22.5 12.8801Z" fill="#555F62"/>
<path d="M20.3 17.75C19.89 17.75 19.55 17.42 19.55 17V16.99C19.55 16.58 19.89 16.24 20.3 16.24C20.71 16.24 21.05 16.58 21.05 16.99C21.05 17.4 20.71 17.75 20.3 17.75Z" fill="#555F62"/>
<path d="M20.3 7.76001C19.89 7.76001 19.55 7.42001 19.55 7.01001C19.55 6.60001 19.89 6.26001 20.3 6.26001C20.71 6.26001 21.05 6.59001 21.05 7.01001V7.02001C21.05 7.42001 20.71 7.76001 20.3 7.76001Z" fill="#555F62"/>
</svg>
