<svg width="24" height="24" viewBox="0 0 24 24" fill="none" xmlns="http://www.w3.org/2000/svg">
<path d="M14.3 10.1301C14.58 11.2301 14.09 12.2501 13.25 12.7701V14.7501C13.25 15.4401 12.69 16.0001 12 16.0001C11.31 16.0001 10.75 15.4401 10.75 14.7501V12.7701C10.07 12.3501 9.62 11.6001 9.62 10.7501C9.62 9.23006 11.06 8.05006 12.64 8.47006C13.44 8.68006 14.09 9.33006 14.3 10.1301Z" fill="#555F62"/>
<path d="M12 22.75C6.07 22.75 1.25 17.93 1.25 12C1.25 6.07 6.07 1.25 12 1.25C16.74 1.25 20.86 4.29 22.27 8.8C22.39 9.2 22.17 9.62001 21.78 9.74001C21.38 9.86001 20.96 9.64 20.84 9.25C19.63 5.36 16.08 2.75 12.01 2.75C6.90999 2.75 2.75999 6.9 2.75999 12C2.75999 17.1 6.90999 21.25 12.01 21.25C16.07 21.25 19.62 18.65 20.83 14.78C20.95 14.38 21.37 14.17 21.77 14.29C22.17 14.41 22.38 14.84 22.26 15.23C20.84 19.73 16.72 22.75 12 22.75Z" fill="#555F62"/>
</svg>
