<svg width="24" height="24" viewBox="0 0 24 24" fill="none" xmlns="http://www.w3.org/2000/svg">
<path d="M13.89 2.88002L9.19999 2.14002C5.28999 1.53002 3.47999 2.85002 2.85999 6.76002L2.11999 11.45C1.71999 14.01 2.13999 15.67 3.58999 16.68C4.34999 17.22 5.38999 17.58 6.73999 17.79L11.43 18.53C15.34 19.14 17.15 17.82 17.77 13.91L18.5 9.22002C18.62 8.45002 18.67 7.76002 18.63 7.15002C18.5 4.65002 17.03 3.37002 13.89 2.88002ZM8.23999 9.35002C7.06999 9.35002 6.11999 8.40002 6.11999 7.24002C6.11999 6.07002 7.06999 5.12002 8.23999 5.12002C9.39999 5.12002 10.35 6.07002 10.35 7.24002C10.35 8.40002 9.39999 9.35002 8.23999 9.35002Z" fill="#555F62"/>
<path d="M20.5 13.4701L19 17.9801C17.75 21.7401 15.75 22.7401 11.99 21.4901L7.48001 19.9901C6.07001 19.5201 5.05001 18.9401 4.39001 18.2101C5.02001 18.4601 5.75001 18.6501 6.58001 18.7801L11.28 19.5201C11.92 19.6201 12.52 19.6701 13.08 19.6701C16.38 19.6701 18.15 17.8901 18.76 14.0601L19.49 9.37006C19.59 8.79006 19.63 8.28006 19.63 7.81006C21.15 9.06006 21.37 10.8401 20.5 13.4701Z" fill="#555F62"/>
</svg>
