<svg width="25" height="24" viewBox="0 0 25 24" fill="none" xmlns="http://www.w3.org/2000/svg">
<path d="M13.0298 2.03027C11.0798 2.03027 9.25978 2.59027 7.72978 3.55027L14.5898 10.4203L14.5998 7.68027C14.5998 7.27027 14.9398 6.93027 15.3498 6.93027C15.7698 6.93027 16.0998 7.27027 16.0998 7.68027L16.0898 12.2303C16.0898 12.5403 15.8998 12.8103 15.6198 12.9203C15.5298 12.9603 15.4298 12.9803 15.3398 12.9803C15.1398 12.9803 14.9498 12.9003 14.8098 12.7603L6.61979 4.56027C6.57979 4.52027 6.54979 4.48027 6.51979 4.44027C4.37979 6.28027 3.02979 9.00027 3.02979 12.0303C3.02979 17.5503 7.50979 22.0303 13.0298 22.0303C14.9798 22.0303 16.7998 21.4703 18.3298 20.5103L11.4698 13.6403L11.4598 16.3803C11.4598 16.7903 11.1198 17.1303 10.7098 17.1303C10.2898 17.1303 9.95979 16.7903 9.95979 16.3803L9.96979 11.8303C9.96979 11.5203 10.1598 11.2503 10.4398 11.1403C10.7098 11.0203 11.0398 11.0803 11.2498 11.3003L19.4398 19.5003C19.4798 19.5403 19.5098 19.5803 19.5398 19.6203C21.6798 17.7803 23.0298 15.0603 23.0298 12.0303C23.0298 6.51027 18.5498 2.03027 13.0298 2.03027Z" fill="#555F62"/>
</svg>
