<svg width="24" height="24" viewBox="0 0 24 24" fill="none" xmlns="http://www.w3.org/2000/svg">
<path d="M21.9999 5.71V15.29C21.9999 18.05 19.7599 20.29 16.9999 20.29H6.99995C6.53995 20.29 6.09995 20.23 5.66995 20.11C5.04995 19.94 4.84995 19.15 5.30995 18.69L15.9399 8.06C16.1599 7.84 16.4899 7.79 16.7999 7.85C17.1199 7.91 17.4699 7.82 17.7199 7.58L20.2899 5C21.2299 4.06 21.9999 4.37 21.9999 5.71Z" fill="#555F62"/>
<path d="M14.64 7.36002L4.17 17.83C3.69 18.31 2.89 18.19 2.57 17.59C2.2 16.91 2 16.12 2 15.29V5.71002C2 4.37002 2.77 4.06002 3.71 5.00002L6.29 7.59002C6.68 7.97002 7.32 7.97002 7.71 7.59002L11.29 4.00002C11.68 3.61002 12.32 3.61002 12.71 4.00002L14.65 5.94002C15.03 6.33002 15.03 6.97002 14.64 7.36002Z" fill="#555F62"/>
</svg>
