<svg width="24" height="24" viewBox="0 0 24 24" fill="none" xmlns="http://www.w3.org/2000/svg">
<path d="M22 22.75H5C2.93 22.75 1.25 21.07 1.25 19V2C1.25 1.59 1.59 1.25 2 1.25C2.41 1.25 2.75 1.59 2.75 2V19C2.75 20.24 3.76 21.25 5 21.25H22C22.41 21.25 22.75 21.59 22.75 22C22.75 22.41 22.41 22.75 22 22.75Z" fill="#555F62"/>
<path d="M5.00001 17.7499C4.83001 17.7499 4.65001 17.6899 4.51001 17.5699C4.20001 17.2999 4.16001 16.8299 4.43001 16.5099L9.02001 11.1499C9.52001 10.5699 10.24 10.2199 11 10.1899C11.76 10.1699 12.51 10.4499 13.05 10.9899L14 11.9399C14.25 12.1899 14.57 12.3099 14.93 12.3099C15.28 12.2999 15.6 12.1399 15.83 11.8699L20.42 6.50994C20.69 6.19994 21.16 6.15994 21.48 6.42994C21.79 6.69994 21.83 7.16994 21.56 7.48994L16.97 12.8499C16.47 13.4299 15.75 13.7799 14.99 13.8099C14.22 13.8299 13.48 13.5499 12.94 13.0099L12 12.0599C11.75 11.8099 11.42 11.6799 11.07 11.6899C10.72 11.6999 10.4 11.8599 10.17 12.1299L5.58001 17.4899C5.42001 17.6599 5.21001 17.7499 5.00001 17.7499Z" fill="#555F62"/>
</svg>
