<svg width="24" height="24" viewBox="0 0 24 24" fill="none" xmlns="http://www.w3.org/2000/svg">
<path d="M17.0199 21.2901L13.5399 19.5501C12.5699 19.0701 11.4399 19.0701 10.4699 19.5501L6.98991 21.2901C3.99991 22.7801 0.849913 19.5701 2.40991 16.6201L3.22991 15.0801C3.33991 14.8701 3.51991 14.7001 3.73991 14.6001L16.3799 8.90005C16.8999 8.67005 17.5099 8.88005 17.7699 9.38005L21.5799 16.6201C23.1399 19.5701 19.9999 22.7801 17.0199 21.2901Z" fill="#555F62"/>
<path d="M15.6 7.69002L7.31996 11.42C6.38996 11.84 5.44996 10.84 5.92996 9.94002L8.96996 4.17002C10.26 1.72002 13.76 1.72002 15.05 4.17002L16.12 6.21002C16.4 6.76002 16.16 7.44002 15.6 7.69002Z" fill="#555F62"/>
</svg>
