<svg width="24" height="24" viewBox="0 0 24 24" fill="none" xmlns="http://www.w3.org/2000/svg">
<path d="M18.6899 11.53C18.1199 11.38 17.4499 11.3 16.6499 11.3C15.5399 11.3 15.1299 11.57 14.5599 12C14.5299 12.02 14.4999 12.05 14.4699 12.08L13.5199 13.09C12.7199 13.93 11.2799 13.94 10.4799 13.08L9.52993 12.08C9.49993 12.05 9.46993 12.02 9.43993 12C8.86993 11.57 8.45993 11.3 7.34993 11.3C6.54993 11.3 5.87993 11.38 5.30993 11.53C2.92993 12.17 2.92993 14.06 2.92993 15.72V16.65C2.92993 19.16 2.92993 22 8.27993 22H15.7199C19.2699 22 21.0699 20.2 21.0699 16.65V15.72C21.0699 14.06 21.0699 12.17 18.6899 11.53ZM14.3299 18.4H9.66993C9.28993 18.4 8.97993 18.09 8.97993 17.7C8.97993 17.31 9.28993 17 9.66993 17H14.3299C14.7099 17 15.0199 17.31 15.0199 17.7C15.0199 18.09 14.7099 18.4 14.3299 18.4Z" fill="#555F62"/>
<path d="M12.6699 4.3L13.3199 4.95C13.5799 5.21 14.0099 5.21 14.2699 4.95C14.5299 4.69 14.5299 4.26 14.2699 4L12.4699 2.2C12.4099 2.14 12.3299 2.09 12.2499 2.05C12.1699 2.02 12.0899 2 11.9999 2C11.9099 2 11.8299 2.02 11.7399 2.05C11.6599 2.08 11.5999 2.13 11.5399 2.18C11.5299 2.19 11.5299 2.19 11.5199 2.19L9.7199 4C9.4599 4.26 9.4599 4.69 9.7199 4.95C9.9799 5.21 10.4099 5.21 10.6699 4.95L11.3199 4.3V6H12.6699V4.3Z" fill="#555F62"/>
<path d="M19.21 10.12C19.17 10.1 19.12 10.09 19.08 10.08H19.07C18.36 9.89 17.57 9.8 16.65 9.8C15.11 9.8 14.38 10.25 13.72 10.75C13.58 10.85 13.48 10.95 13.38 11.05L12.43 12.06C12.33 12.16 12.17 12.22 12 12.22C11.94 12.22 11.72 12.21 11.57 12.05L10.59 11.02C10.49 10.91 10.37 10.82 10.34 10.8C9.62004 10.25 8.89004 9.8 7.35004 9.8C6.43004 9.8 5.64004 9.89 4.92004 10.08C4.88004 10.09 4.83004 10.1 4.79004 10.12C4.80004 8.13 5.00004 6 9.21004 6H11.33V9.08C11.33 9.45 11.63 9.75 12 9.75C12.37 9.75 12.67 9.45 12.67 9.08V6H14.79C19 6 19.2 8.13 19.21 10.12Z" fill="#555F62"/>
</svg>
