<svg width="24" height="24" viewBox="0 0 24 24" fill="none" xmlns="http://www.w3.org/2000/svg">
<path d="M12 18.75C11.59 18.75 11.25 18.41 11.25 18V17C11.25 16.59 11.59 16.25 12 16.25C12.41 16.25 12.75 16.59 12.75 17V18C12.75 18.41 12.41 18.75 12 18.75Z" fill="#555F62"/>
<path d="M12 22.75C11.59 22.75 11.25 22.41 11.25 22V21C11.25 20.59 11.59 20.25 12 20.25C12.41 20.25 12.75 20.59 12.75 21V22C12.75 22.41 12.41 22.75 12 22.75Z" fill="#555F62"/>
<path d="M2.0001 22.7501C1.9401 22.7501 1.8801 22.7401 1.8201 22.7301C1.4201 22.6301 1.1701 22.2201 1.2701 21.8201L2.2701 17.8201C2.3701 17.4201 2.7701 17.1701 3.1801 17.2701C3.5801 17.3701 3.8301 17.7801 3.7301 18.1801L2.7301 22.1801C2.6401 22.5201 2.3401 22.7501 2.0001 22.7501Z" fill="#555F62"/>
<path d="M21.7526 22.5026C21.4126 22.5026 21.1126 22.2726 21.0226 21.9326L20.0226 17.9326C19.9226 17.5326 20.1626 17.1226 20.5726 17.0226C20.9726 16.9226 21.3826 17.1626 21.4826 17.5726L22.4826 21.5726C22.5826 21.9726 22.3426 22.3826 21.9326 22.4826C21.8726 22.4926 21.8126 22.5026 21.7526 22.5026Z" fill="#555F62"/>
<path d="M19.14 5.3C19.14 5.6 18.89 5.84 18.6 5.84H5.52999C5.22999 5.84 4.98999 5.59 4.98999 5.3C4.98999 5 5.23999 4.76 5.52999 4.76H6.26999L6.54999 3.45C6.80999 2.17 7.34999 1 9.50999 1H14.6C16.76 1 17.31 2.17 17.57 3.44L17.85 4.75H18.59C18.89 4.75 19.14 5 19.14 5.3Z" fill="#555F62"/>
<path d="M19.4499 9.40018C19.3399 8.20018 19.0199 6.93018 16.6899 6.93018H7.4299C5.0999 6.93018 4.7899 8.21018 4.6699 9.40018L4.2599 13.8202C4.2099 14.3702 4.3899 14.9202 4.7699 15.3402C5.1599 15.7602 5.6999 16.0002 6.2799 16.0002H7.6399C8.8199 16.0002 9.0399 15.3302 9.1899 14.8802L9.3399 14.4402C9.5099 13.9402 9.5499 13.8202 10.1999 13.8202H13.9199C14.5699 13.8202 14.5899 13.8902 14.7799 14.4402L14.9299 14.8802C15.0699 15.3302 15.2999 16.0002 16.4699 16.0002H17.8299C18.3999 16.0002 18.9499 15.7602 19.3399 15.3402C19.7199 14.9302 19.8999 14.3702 19.8499 13.8202L19.4499 9.40018ZM9.8799 10.9202H7.7099C7.4099 10.9202 7.1699 10.6702 7.1699 10.3802C7.1699 10.0902 7.4199 9.84018 7.7099 9.84018H9.8899C10.1899 9.84018 10.4299 10.0902 10.4299 10.3802C10.4299 10.6702 10.1799 10.9202 9.8799 10.9202ZM16.4099 10.9202H14.2299C13.9299 10.9202 13.6899 10.6702 13.6899 10.3802C13.6899 10.0902 13.9399 9.84018 14.2299 9.84018H16.4099C16.7099 9.84018 16.9499 10.0902 16.9499 10.3802C16.9499 10.6702 16.7099 10.9202 16.4099 10.9202Z" fill="#555F62"/>
</svg>
