<svg width="24" height="24" viewBox="0 0 24 24" fill="none" xmlns="http://www.w3.org/2000/svg">
<path d="M7.92999 5.47993L11.06 8.60994C11.58 9.12994 12.43 9.12994 12.95 8.60994L16.08 5.47993C16.92 4.63993 16.33 3.18994 15.13 3.18994H8.87C7.68 3.18994 7.07999 4.63993 7.92999 5.47993Z" fill="#555F62"/>
<path d="M7.92999 18.52L11.06 15.39C11.58 14.87 12.43 14.87 12.95 15.39L16.08 18.52C16.92 19.36 16.33 20.81 15.13 20.81H8.87C7.68 20.81 7.07999 19.36 7.92999 18.52Z" fill="#555F62"/>
<path d="M2.16 11.4301L4.45004 7.83008C4.81004 7.26008 5.61006 7.17008 6.09006 7.65008L9.69003 11.2501C10.1 11.6601 10.1 12.3301 9.69003 12.7401L6.09006 16.3401C5.61006 16.8201 4.82004 16.7301 4.45004 16.1601L2.16 12.5601C1.95 12.2201 1.95 11.7801 2.16 11.4301Z" fill="#555F62"/>
<path d="M21.84 11.4301L19.55 7.83008C19.19 7.26008 18.39 7.17008 17.91 7.65008L14.31 11.2501C13.9 11.6601 13.9 12.3301 14.31 12.7401L17.91 16.3401C18.39 16.8201 19.18 16.7301 19.55 16.1601L21.84 12.5601C22.05 12.2201 22.05 11.7801 21.84 11.4301Z" fill="#555F62"/>
</svg>
