<svg width="24" height="24" viewBox="0 0 24 24" fill="none" xmlns="http://www.w3.org/2000/svg">
<path d="M8.25815 21.2448C8.90513 20.5979 9.27679 19.7719 9.37315 18.9185C9.50392 17.7828 9.12537 16.6059 8.25815 15.7387C7.74195 15.2225 7.10874 14.8783 6.44112 14.72C5.16782 14.3966 3.75687 14.7338 2.752 15.7387C2.05684 16.4338 1.67829 17.3217 1.63012 18.2371C1.5957 18.6294 1.63012 19.0355 1.73336 19.4278C1.89166 20.0954 2.23579 20.7286 2.752 21.2448C4.27307 22.7659 6.73708 22.7659 8.25815 21.2448ZM6.96421 17.776C7.3634 17.776 7.69377 18.1063 7.69377 18.5055C7.68689 18.9116 7.3634 19.2351 6.95732 19.242L6.23464 19.2351L6.24152 19.9302C6.23464 20.3363 5.91115 20.6598 5.50507 20.6667C5.09899 20.6598 4.77551 20.3363 4.76863 19.9302L4.77551 19.2351L4.05282 19.242C3.64675 19.2351 3.32326 18.9116 3.31638 18.5055C3.32326 18.3059 3.40585 18.127 3.53662 17.9962C3.66739 17.8654 3.84634 17.7828 4.04594 17.776L4.77551 17.776L4.77551 17.0189C4.77551 16.8124 4.8581 16.6334 4.98887 16.5027C5.11964 16.3719 5.29859 16.2893 5.50507 16.2893C5.90427 16.2893 6.23464 16.6197 6.23464 17.0189L6.23464 17.776L6.96421 17.776Z" fill="#555F62"/>
<path d="M15.0942 3.84554V7.54431H13.6342V3.84554C13.6342 3.58273 13.4006 3.45619 13.2449 3.45619C13.1962 3.45619 13.1475 3.46593 13.0989 3.4854L5.38011 6.39574C4.86422 6.59042 4.53328 7.07709 4.53328 7.63191V8.28406C3.64752 8.94595 3.07324 10.0069 3.07324 11.2041V7.63191C3.07324 6.47361 3.7838 5.44185 4.86422 5.03304L12.5927 2.11296C12.8068 2.03509 13.0307 1.99615 13.2449 1.99615C14.2182 1.99615 15.0942 2.78458 15.0942 3.84554Z" fill="#555F62"/>
<path d="M21.5686 14.1153V15.0886C21.5686 15.3514 21.3642 15.5656 21.0916 15.5753H19.6705C19.1546 15.5753 18.6874 15.1957 18.6485 14.6896C18.6193 14.3878 18.7361 14.1055 18.9308 13.9109C19.106 13.7259 19.3493 13.6286 19.6121 13.6286H21.0819C21.3642 13.6383 21.5686 13.8525 21.5686 14.1153Z" fill="#555F62"/>
<path d="M19.6009 12.605H20.5937C21.1291 12.605 21.5671 12.167 21.5671 11.6316V11.2034C21.5671 9.1885 19.9221 7.54352 17.9073 7.54352H6.73308C5.90572 7.54352 5.1465 7.81606 4.53328 8.28327C3.64752 8.94516 3.07324 10.0061 3.07324 11.2034V12.9359C3.07324 13.3058 3.46259 13.5394 3.813 13.4226C4.35808 13.2377 4.93236 13.1403 5.50664 13.1403C8.45592 13.1403 10.8601 15.5445 10.8601 18.4938C10.8601 19.1946 10.6752 19.9636 10.3832 20.6449C10.2274 20.9954 10.4708 21.4139 10.8504 21.4139H17.9073C19.9221 21.4139 21.5671 19.7689 21.5671 17.7541V17.5691C21.5671 17.0338 21.1291 16.5958 20.5937 16.5958H19.7469C18.8125 16.5958 17.917 16.0215 17.6736 15.1163C17.479 14.3765 17.7126 13.6562 18.1993 13.189C18.5594 12.8191 19.0558 12.605 19.6009 12.605ZM14.2669 12.4103H9.40008C9.00101 12.4103 8.67006 12.0794 8.67006 11.6803C8.67006 11.2812 9.00101 10.9503 9.40008 10.9503H14.2669C14.666 10.9503 14.9969 11.2812 14.9969 11.6803C14.9969 12.0794 14.666 12.4103 14.2669 12.4103Z" fill="#555F62"/>
</svg>
