<svg width="24" height="24" viewBox="0 0 24 24" fill="none" xmlns="http://www.w3.org/2000/svg">
<path d="M9.28 20.3101C9.45 20.7901 8.92999 21.2301 8.48999 20.9701L5.34 19.1801C4.77 18.8501 4.42001 18.0601 4.54001 17.4201L5.48001 12.7501C5.59001 12.2001 6.35001 12.1501 6.54001 12.6701L9.28 20.3101Z" fill="#555F62"/>
<path d="M18.66 19.18L15.5 20.98C15.06 21.23 14.54 20.8 14.71 20.32L17.46 12.61C17.65 12.09 18.41 12.14 18.52 12.69L19.47 17.42C19.58 18.06 19.23 18.85 18.66 19.18Z" fill="#555F62"/>
<path d="M17.08 7.32007C17.32 7.62007 17.39 8.02007 17.26 8.38007L12.52 21.6301C12.35 22.1201 11.66 22.1201 11.49 21.6301L6.74999 8.39007C6.61999 8.03007 6.68999 7.63007 6.92999 7.33007L10.75 2.63007C11.44 1.80007 12.58 1.80007 13.28 2.63007L17.08 7.32007Z" fill="#555F62"/>
</svg>
