<svg width="24" height="24" viewBox="0 0 24 24" fill="none" xmlns="http://www.w3.org/2000/svg">
<path d="M8.76999 14.4299L10.38 15.1499C11.41 15.6099 12.59 15.6099 13.63 15.1499L15.24 14.4299C16.68 13.7899 18.01 15.5299 17.01 16.7499L13.55 20.9799C12.7 22.0199 11.31 22.0199 10.45 20.9799L7 16.7499C5.99 15.5299 7.31999 13.7899 8.76999 14.4299Z" fill="#555F62"/>
<path d="M8.57 11.6699C8.27 11.8899 8.31 12.3499 8.65 12.5199L11 13.6899C11.55 13.9699 12.44 13.9699 12.98 13.6899L15.33 12.5199C15.66 12.3499 15.7 11.8999 15.41 11.6699L12.3 9.32992C12.12 9.19992 11.88 9.19992 11.7 9.32992L8.57 11.6699Z" fill="#555F62"/>
<path d="M17.88 8.23996L13.71 3.03996C13.63 2.93996 13.54 2.84996 13.45 2.75996C13.19 2.50996 12.82 2.73996 12.82 3.09996V7.39996C12.82 7.55996 12.89 7.70996 13.02 7.79996L17.17 10.92L17.35 11.05C17.53 11.18 17.78 11.18 17.93 11.02C18.63 10.26 18.62 9.15996 17.88 8.23996Z" fill="#555F62"/>
<path d="M6.11 8.33009L10.26 3.05009C10.34 2.95009 10.42 2.86009 10.51 2.77009C10.77 2.52009 11.14 2.74009 11.14 3.11009V7.48009C11.14 7.64009 11.07 7.78009 10.94 7.88009L6.81 11.0501L6.64 11.1801C6.46 11.3101 6.21 11.3101 6.05 11.1401C5.37 10.3701 5.38 9.27009 6.11 8.33009Z" fill="#555F62"/>
</svg>
