<svg width="24" height="24" viewBox="0 0 24 24" fill="none" xmlns="http://www.w3.org/2000/svg">
<path d="M6.9 9.10012L11.67 6.98012C11.88 6.89012 12.12 6.89012 12.32 6.98012L17.09 9.10012C17.51 9.29012 17.9 8.78012 17.61 8.42012L12.61 2.31012C12.27 1.89012 11.71 1.89012 11.37 2.31012L6.36997 8.42012C6.08997 8.78012 6.48 9.29012 6.9 9.10012Z" fill="#555F62"/>
<path d="M6.90001 14.9L11.68 17.02C11.89 17.11 12.13 17.11 12.33 17.02L17.11 14.9C17.53 14.71 17.92 15.22 17.63 15.58L12.63 21.69C12.29 22.11 11.73 22.11 11.39 21.69L6.39 15.58C6.09 15.22 6.47001 14.71 6.90001 14.9Z" fill="#555F62"/>
<path d="M11.78 9.49L7.65 11.55C7.28 11.73 7.28 12.26 7.65 12.44L11.78 14.5C11.92 14.57 12.09 14.57 12.23 14.5L16.36 12.44C16.73 12.26 16.73 11.73 16.36 11.55L12.23 9.49C12.08 9.42 11.92 9.42 11.78 9.49Z" fill="#555F62"/>
</svg>
