<svg width="24" height="24" viewBox="0 0 24 24" fill="none" xmlns="http://www.w3.org/2000/svg">
<path d="M21.14 9.8999H12.75V15.3799C12.75 15.7899 12.41 16.1299 12 16.1299C11.59 16.1299 11.25 15.7899 11.25 15.3799V9.8999H2.86C2.38 9.8999 2 10.2799 2 10.7599C2 16.6499 6.11 20.7599 12 20.7599C17.89 20.7599 22 16.6499 22 10.7599C22 10.2799 21.62 9.8999 21.14 9.8999Z" fill="#555F62"/>
<path d="M12.7499 5.80018L14.3099 7.36018C14.5999 7.65018 15.0799 7.65018 15.3699 7.36018C15.6599 7.07018 15.6599 6.59018 15.3699 6.30018L12.5199 3.46018C12.2299 3.17018 11.7499 3.17018 11.4599 3.46018L8.6199 6.31018C8.4799 6.46018 8.3999 6.65018 8.3999 6.84018C8.3999 7.03018 8.4699 7.22018 8.6199 7.37018C8.9099 7.66018 9.3899 7.66018 9.6799 7.37018L11.2399 5.81018V9.90018H12.7399V5.80018H12.7499Z" fill="#555F62"/>
</svg>
