<svg width="24" height="24" viewBox="0 0 24 24" fill="none" xmlns="http://www.w3.org/2000/svg">
<path d="M12 2H8.66998C6.82998 2 5.34003 3.48999 5.34003 5.32999C5.34003 7.16999 6.82998 8.66 8.66998 8.66H12V2Z" fill="#555F62"/>
<path d="M12 8.66992H8.66998C6.82998 8.66992 5.34003 10.1599 5.34003 11.9999C5.34003 13.8399 6.82998 15.3299 8.66998 15.3299H12V8.66992Z" fill="#555F62"/>
<path d="M12 15.3301H8.66998C6.82998 15.3301 5.34003 16.8201 5.34003 18.6601C5.34003 20.5001 6.82998 21.9901 8.66998 21.9901C10.51 21.9901 12 20.5001 12 18.6601V15.3301Z" fill="#555F62"/>
<path d="M12 2H15.33C17.17 2 18.66 3.48999 18.66 5.32999C18.66 7.16999 17.17 8.66 15.33 8.66H12V2Z" fill="#555F62"/>
<path d="M15.33 8.66992C17.17 8.66992 18.66 10.1599 18.66 11.9999C18.66 13.8399 17.17 15.3299 15.33 15.3299C13.49 15.3299 12 13.8399 12 11.9999C12 10.1599 13.49 8.66992 15.33 8.66992Z" fill="#555F62"/>
</svg>
