<svg width="24" height="24" viewBox="0 0 24 24" fill="none" xmlns="http://www.w3.org/2000/svg">
<path d="M4.5 10.4901V16.4301C4.5 16.7401 4.64 17.0401 4.87 17.2401L10.23 21.83C10.93 22.43 12 21.9301 12 21.0201V16.9201H16.91C17.86 16.9201 18.34 15.7701 17.67 15.0901L12 9.42008H5.57001C4.98001 9.41008 4.5 9.89005 4.5 10.4901Z" fill="#555F62"/>
<path d="M18.43 1.90991H7.08998C6.13998 1.90991 5.65997 3.0599 6.32997 3.7399L12 9.40991H18.43C19.02 9.40991 19.5 8.9299 19.5 8.3399V2.97992C19.5 2.38992 19.02 1.90991 18.43 1.90991Z" fill="#555F62"/>
</svg>
