<svg width="24" height="24" viewBox="0 0 24 24" fill="none" xmlns="http://www.w3.org/2000/svg">
<path d="M16.65 5.72021H7.35C4.4 5.72021 2 8.12021 2 11.0702V16.6502C2 19.6002 4.4 22.0002 7.35 22.0002H16.65C19.6 22.0002 22 19.6002 22 16.6502V11.0702C22 8.12021 19.6 5.72021 16.65 5.72021ZM14.5 12.0202C14.5 11.4702 14.95 11.0202 15.5 11.0202C16.05 11.0202 16.5 11.4702 16.5 12.0202C16.5 12.5702 16.05 13.0302 15.5 13.0302C14.95 13.0302 14.5 12.5902 14.5 12.0402V12.0202ZM10.13 16.0702C9.98 16.2202 9.79 16.2902 9.6 16.2902C9.41 16.2902 9.22 16.2202 9.07 16.0702L8.04 15.0402L7.05 16.0302C6.9 16.1802 6.71 16.2502 6.52 16.2502C6.33 16.2502 6.14 16.1802 5.99 16.0302C5.7 15.7402 5.7 15.2602 5.99 14.9702L6.98 13.9802L6.02 13.0202C5.73 12.7302 5.73 12.2502 6.02 11.9602C6.31 11.6702 6.79 11.6702 7.08 11.9602L8.04 12.9202L9.03 11.9302C9.32 11.6402 9.8 11.6402 10.09 11.9302C10.38 12.2202 10.38 12.7002 10.09 12.9902L9.1 13.9802L10.13 15.0102C10.42 15.3002 10.42 15.7802 10.13 16.0702ZM13.54 15.0002C12.99 15.0002 12.53 14.5502 12.53 14.0002C12.53 13.4502 12.97 13.0002 13.52 13.0002H13.54C14.09 13.0002 14.54 13.4502 14.54 14.0002C14.54 14.5502 14.1 15.0002 13.54 15.0002ZM15.5 16.9702C14.95 16.9702 14.5 16.5302 14.5 15.9802V15.9602C14.5 15.4102 14.95 14.9602 15.5 14.9602C16.05 14.9602 16.5 15.4102 16.5 15.9602C16.5 16.5102 16.06 16.9702 15.5 16.9702ZM17.48 15.0002C16.93 15.0002 16.47 14.5502 16.47 14.0002C16.47 13.4502 16.91 13.0002 17.46 13.0002H17.48C18.03 13.0002 18.48 13.4502 18.48 14.0002C18.48 14.5502 18.04 15.0002 17.48 15.0002Z" fill="#555F62"/>
<path d="M13.64 2.71L13.63 3.65C13.62 4.53 12.89 5.26 12 5.26C11.85 5.26 11.76 5.36 11.76 5.49C11.76 5.62 11.86 5.72 11.99 5.72H10.38C10.37 5.65 10.36 5.57 10.36 5.49C10.36 4.59 11.09 3.86 11.98 3.86C12.13 3.86 12.23 3.76 12.23 3.63L12.24 2.69C12.25 2.31 12.56 2 12.94 2H12.95C13.34 2 13.64 2.32 13.64 2.71Z" fill="#555F62"/>
</svg>
