<svg width="24" height="24" viewBox="0 0 24 24" fill="none" xmlns="http://www.w3.org/2000/svg">
<path d="M15.8401 22H8.1601C3.9701 22 3.1401 19.47 4.5001 16.39L5.9401 13.12C5.9401 13.12 9.0001 13 12.0001 14C15.0001 15 17.8301 13.11 17.8301 13.11L18.0201 12.99L19.5101 16.4C20.8501 19.48 19.9701 22 15.8401 22Z" fill="#555F62"/>
<path d="M15.4401 6.74H15.2801L17.4101 11.6L17.0001 11.86C16.9801 11.87 14.7201 13.32 12.4701 12.58C10.1201 11.79 7.76007 11.65 6.60007 11.63L8.74007 6.74H8.44007C7.79007 6.74 7.19007 6.48 6.76007 6.05C6.33007 5.62 6.07007 5.02 6.07007 4.37C6.07007 3.07 7.13007 2 8.44007 2H15.5501C16.2101 2 16.8001 2.27 17.2301 2.7C17.7901 3.26 18.0801 4.08 17.8601 4.95C17.6001 6.03 16.5601 6.74 15.4401 6.74Z" fill="#555F62"/>
</svg>
