<svg width="24" height="24" viewBox="0 0 24 24" fill="none" xmlns="http://www.w3.org/2000/svg">
<path d="M21.74 11.07C21.69 10.56 21.26 10.18 20.75 10.18H13.2C12.65 10.18 12.2 10.63 12.2 11.18V12.89C12.2 13.44 12.65 13.89 13.2 13.89H17.71C17.6 14.81 17 16.2 15.67 17.13C14.82 17.72 13.69 18.13 12.2 18.13C12.13 18.13 12.07 18.13 12 18.12C9.45 18.04 7.29 16.33 6.51 13.98C6.3 13.35 6.18 12.69 6.18 12C6.18 11.31 6.3 10.64 6.5 10.02C6.56 9.83999 6.63 9.66001 6.71 9.48001C7.63 7.41001 9.64 5.95 12 5.88C12.06 5.87 12.13 5.87 12.2 5.87C13.63 5.87 14.7 6.33999 15.45 6.85999C15.84 7.12999 16.36 7.06999 16.7 6.73999L18.09 5.38C18.53 4.95 18.49 4.21999 17.99 3.85999C16.4 2.68999 14.46 2 12.2 2C12.13 2 12.07 2.00001 12 2.01001C8.17 2.08001 4.88 4.30001 3.27 7.51001C2.59 8.87001 2.2 10.39 2.2 12C2.2 13.61 2.59 15.13 3.27 16.49H3.28C4.89 19.7 8.18 21.92 12 21.99C12.07 22 12.13 22 12.2 22C14.9 22 17.17 21.11 18.82 19.58C20.71 17.83 21.8 15.27 21.8 12.22C21.8 11.79 21.78 11.42 21.74 11.07Z" fill="#555F62"/>
</svg>
