<svg width="24" height="24" viewBox="0 0 24 24" fill="none" xmlns="http://www.w3.org/2000/svg">
<path d="M5.94001 16.77L4.28004 19.59C4.16004 19.8 3.84998 19.8 3.71998 19.59L2.03004 16.77C1.90004 16.55 2.06001 16.28 2.31001 16.28H5.65998C5.90998 16.28 6.06001 16.56 5.94001 16.77Z" fill="#555F62"/>
<path d="M11.69 8.40991L7.73997 14.8799C7.64997 15.0299 7.48999 15.1099 7.31999 15.1099H2.24998C1.86998 15.1099 1.62999 14.7099 1.81999 14.3899L8.28001 3.72992C8.47001 3.41992 8.93998 3.40992 9.12998 3.72992L11.69 7.93991C11.78 8.07991 11.78 8.25991 11.69 8.40991Z" fill="#555F62"/>
<path d="M13.72 14.4899H10.24C10.04 14.4899 9.91 14.2699 10.01 14.0899L11.75 11.14C11.85 10.97 12.1 10.97 12.2 11.14L13.94 14.0899C14.05 14.2699 13.92 14.4899 13.72 14.4899Z" fill="#555F62"/>
<path d="M13.66 3.39999L12.21 5.87C12.11 6.04 11.85 6.04 11.75 5.87L10.3 3.39999C10.2 3.21999 10.3201 3 10.5301 3H13.43C13.64 3 13.76 3.21999 13.66 3.39999Z" fill="#555F62"/>
<path d="M22.17 14.3699C22.37 14.6999 22.12 15.1199 21.74 15.1199H16.87C16.7 15.1199 16.55 15.0299 16.46 14.8899L12.65 8.41992C12.56 8.26992 12.56 8.08991 12.65 7.93991L15.12 3.72992C15.3 3.41992 15.76 3.40992 15.94 3.72992C17.16 5.83992 20.89 12.1799 22.17 14.3699Z" fill="#555F62"/>
<path d="M21.93 16.77C21.38 17.7 20.79 18.7 20.25 19.61C20.12 19.83 19.81 19.82 19.68 19.6L18.02 16.77C17.89 16.55 18.05 16.27 18.31 16.27H21.64C21.9 16.28 22.06 16.55 21.93 16.77Z" fill="#555F62"/>
<path d="M18.02 20.9999H5.94001C5.58001 20.9999 5.35998 20.6099 5.53998 20.2999L7.87 16.3399C7.95 16.1999 8.10002 16.1099 8.27002 16.1099H15.69C15.85 16.1099 16.01 16.1999 16.09 16.3399L18.42 20.2999C18.6 20.6099 18.38 20.9999 18.02 20.9999Z" fill="#555F62"/>
</svg>
