<svg width="24" height="24" viewBox="0 0 24 24" fill="none" xmlns="http://www.w3.org/2000/svg">
<path d="M18.8 20.7L16.9 22.61C16.38 23.13 15.52 23.13 14.98 22.61L13.4 21.02C12.88 20.49 12.88 19.64 13.4 19.1L15.31 17.21L18.8 20.7Z" fill="#555F62"/>
<path d="M22.6101 16.9L19.8001 19.7L16.3101 16.21L19.1101 13.39C19.6401 12.87 20.5001 12.87 21.0301 13.39L22.6101 14.98C23.1301 15.51 23.1301 16.38 22.6101 16.9Z" fill="#555F62"/>
<path d="M6.74683 2.06549C7.29669 1.99425 7.75 2.45112 7.75 3.00557V6.8C7.75 7.35229 7.30228 7.8 6.75 7.8H3C2.44772 7.8 1.9918 7.35027 2.05867 6.80204C2.38633 4.11548 4.07187 2.41205 6.74683 2.06549Z" fill="#555F62"/>
<path d="M20.93 7.8H17.25C16.6977 7.8 16.25 7.35228 16.25 6.8V3.00625C16.25 2.45153 16.7041 1.99459 17.2542 2.06633C19.8878 2.40978 21.5645 4.0681 21.93 6.68C22.01 7.27 21.53 7.8 20.93 7.8Z" fill="#555F62"/>
<path d="M6.75 16.2998C7.30228 16.2998 7.75 16.7475 7.75 17.2998V20.9198C7.75 21.5198 7.22 21.9998 6.62 21.9198C4.05088 21.5375 2.43008 19.8909 2.07373 17.3099C1.99752 16.7579 2.4555 16.2998 3.01274 16.2998H6.75Z" fill="#555F62"/>
<path d="M7.75 10.2998C7.75 9.74752 7.30228 9.2998 6.75 9.2998H3C2.44772 9.2998 2 9.74752 2 10.2998V13.7998C2 14.3521 2.44772 14.7998 3 14.7998H6.75C7.30228 14.7998 7.75 14.3521 7.75 13.7998V10.2998Z" fill="#555F62"/>
<path d="M14.75 10.2998C14.75 9.74752 14.3023 9.2998 13.75 9.2998H10.25C9.69772 9.2998 9.25 9.74752 9.25 10.2998V13.7998C9.25 14.3521 9.69772 14.7998 10.25 14.7998H13.75C14.3 14.7998 14.75 14.3498 14.75 13.7998V10.2998Z" fill="#555F62"/>
<path d="M14.75 3C14.75 2.44771 14.3023 2 13.75 2H10.25C9.69772 2 9.25 2.44772 9.25 3V6.8C9.25 7.35229 9.69772 7.8 10.25 7.8H13.75C14.3023 7.8 14.75 7.35228 14.75 6.8V3Z" fill="#555F62"/>
</svg>
