<svg width="24" height="24" viewBox="0 0 24 24" fill="none" xmlns="http://www.w3.org/2000/svg">
<path d="M11.97 2C6.44997 2 1.96997 6.48 1.96997 12C1.96997 17.52 6.44997 22 11.97 22C17.49 22 21.97 17.52 21.97 12C21.97 6.48 17.5 2 11.97 2ZM17.4 16.43C16.17 18.2 14.15 19.25 12 19.25C9.84997 19.25 7.82997 18.2 6.59997 16.43C6.35997 16.09 6.44997 15.62 6.78997 15.39C7.12997 15.15 7.59997 15.24 7.82997 15.58C8.77997 16.94 10.34 17.76 12 17.76C13.66 17.76 15.22 16.95 16.17 15.58C16.41 15.24 16.87 15.16 17.21 15.39C17.56 15.62 17.64 16.09 17.4 16.43Z" fill="#555F62"/>
</svg>
