<svg width="24" height="24" viewBox="0 0 24 24" fill="none" xmlns="http://www.w3.org/2000/svg">
<path d="M8.5 12.75C8.09 12.75 7.75 12.41 7.75 12V6C7.75 5.59 8.09 5.25 8.5 5.25C8.91 5.25 9.25 5.59 9.25 6V12C9.25 12.41 8.91 12.75 8.5 12.75Z" fill="#555F62"/>
<path d="M8.5 22.75C8.09 22.75 7.75 22.41 7.75 22V18C7.75 17.59 8.09 17.25 8.5 17.25C8.91 17.25 9.25 17.59 9.25 18V22C9.25 22.41 8.91 22.75 8.5 22.75Z" fill="#555F62"/>
<path d="M15.5 22.75C15.09 22.75 14.75 22.41 14.75 22V6C14.75 5.59 15.09 5.25 15.5 5.25C15.91 5.25 16.25 5.59 16.25 6V22C16.25 22.41 15.91 22.75 15.5 22.75Z" fill="#555F62"/>
<path d="M10.1 5.3C10.1 5.79 9.89999 6.24 9.56999 6.57C9.23999 6.9 8.78999 7.1 8.29999 7.1H6.04999C6.32999 6.73 6.49999 6.25 6.49999 5.75V4.85C6.49999 4.35 6.32999 3.87 6.04999 3.5H8.29999C9.28999 3.5 10.1 4.31 10.1 5.3Z" fill="#555F62"/>
<path d="M6.5 4.84981V5.74981C6.5 6.24981 6.33 6.72981 6.05 7.09981C5.29 8.10981 3.73 8.44981 2.28 7.15981C2.12 7.01981 2 6.71981 2 6.50981V4.16981C2 3.96981 2.1 3.69981 2.23 3.55981C3.49 2.23981 5.01 2.42981 5.84 3.25981C5.91 3.32981 5.99 3.40981 6.05 3.49981C6.33 3.86981 6.5 4.34981 6.5 4.84981Z" fill="#555F62"/>
<path d="M13.9 5.3C13.9 5.79 14.1 6.24 14.43 6.57C14.76 6.9 15.21 7.1 15.7 7.1H17.95C17.67 6.73 17.5 6.25 17.5 5.75V4.85C17.5 4.35 17.67 3.87 17.95 3.5H15.7C14.71 3.5 13.9 4.31 13.9 5.3Z" fill="#555F62"/>
<path d="M17.5 4.84981V5.74981C17.5 6.24981 17.67 6.72981 17.95 7.09981C18.71 8.10981 20.27 8.44981 21.72 7.15981C21.88 7.01981 22 6.71981 22 6.50981V4.16981C22 3.97981 21.9 3.69981 21.77 3.55981C20.51 2.23981 18.99 2.42981 18.16 3.25981C18.09 3.32981 18.02 3.40981 17.95 3.49981C17.67 3.86981 17.5 4.34981 17.5 4.84981Z" fill="#555F62"/>
<path d="M10 13.5V17.5C10 18.33 9.33 19 8.5 19C7.67 19 7 18.33 7 17.5V13.5C7 12.67 7.67 12 8.5 12C9.33 12 10 12.67 10 13.5Z" fill="#555F62"/>
</svg>
