<svg width="24" height="24" viewBox="0 0 24 24" fill="none" xmlns="http://www.w3.org/2000/svg">
<path d="M2.75 18.6498C2.34 18.6498 2 18.3098 2 17.8998V12.1998C1.95 9.4898 2.96 6.9298 4.84 5.0098C6.72 3.0998 9.24 2.0498 11.95 2.0498C17.49 2.0498 22 6.5598 22 12.0998V17.7998C22 18.2098 21.66 18.5498 21.25 18.5498C20.84 18.5498 20.5 18.2098 20.5 17.7998V12.0998C20.5 7.3898 16.67 3.5498 11.95 3.5498C9.64 3.5498 7.5 4.4398 5.91 6.0598C4.31 7.6898 3.46 9.8598 3.5 12.1798V17.8898C3.5 18.3098 3.17 18.6498 2.75 18.6498Z" fill="#555F62"/>
<path d="M5.94 12.4502H5.81C3.71 12.4502 2 14.1602 2 16.2602V18.1402C2 20.2402 3.71 21.9502 5.81 21.9502H5.94C8.04 21.9502 9.75 20.2402 9.75 18.1402V16.2602C9.75 14.1602 8.04 12.4502 5.94 12.4502Z" fill="#555F62"/>
<path d="M18.19 12.4502H18.06C15.96 12.4502 14.25 14.1602 14.25 16.2602V18.1402C14.25 20.2402 15.96 21.9502 18.06 21.9502H18.19C20.29 21.9502 22 20.2402 22 18.1402V16.2602C22 14.1602 20.29 12.4502 18.19 12.4502Z" fill="#555F62"/>
</svg>
