<svg width="24" height="24" viewBox="0 0 24 24" fill="none" xmlns="http://www.w3.org/2000/svg">
<path opacity="0.13" d="M10.87 14L12.8 17.33L10.88 20.66H7L5.09 17.35L7.03 14H10.87Z" fill="#555F62"/>
<path d="M10.54 14.0801H7.11999C6.93999 14.0801 6.78 14.1801 6.69 14.3301L4.98001 17.2901C4.89001 17.4401 4.89001 17.6401 4.98001 17.7901L6.69 20.7501C6.78 20.9001 6.93999 21.0001 7.11999 21.0001H10.54C10.72 21.0001 10.88 20.9001 10.97 20.7501L12.68 17.7901C12.77 17.6401 12.77 17.4401 12.68 17.2901L10.97 14.3301C10.88 14.1701 10.72 14.0801 10.54 14.0801Z" fill="#555F62"/>
<path d="M22.24 11.74C22.33 11.9 22.33 12.1 22.24 12.26L17.31 20.79C17.24 20.92 17.1 21 16.95 21C16.63 21 16.43 20.65 16.59 20.38L19.88 14.68C19.97 14.52 19.97 14.32 19.88 14.16L15.48 6.53999C15.39 6.37999 15.22 6.27999 15.03 6.27999H6.22C6.03 6.27999 5.86999 6.37999 5.76999 6.53999L2.5 12.22C2.33 12.52 1.9 12.52 1.72 12.22C1.64 12.08 1.64 11.91 1.72 11.77L6.64002 3.24999C6.72002 3.08999 6.9 2.98999 7.09 2.98999H16.88C17.07 2.98999 17.23 3.08999 17.33 3.24999L22.24 11.74Z" fill="#555F62"/>
<path d="M18.09 14.6801L14.59 20.7401C14.5 20.9001 14.33 21.0001 14.14 21.0001H13.54C13.14 21.0001 12.89 20.5701 13.09 20.2201L14.49 17.8001C14.58 17.6401 14.58 17.4401 14.49 17.2801L11.89 12.7801C11.79 12.6201 11.61 12.5201 11.42 12.5201H6.22C6.03 12.5201 5.86998 12.6201 5.76998 12.7801L4.36999 15.2001C4.16999 15.5501 3.67 15.5501 3.47 15.2001L3.17001 14.6901C3.08001 14.5301 3.08001 14.3301 3.17001 14.1701L6.66 8.1101C6.75 7.9501 6.91998 7.8501 7.10998 7.8501H14.1C14.29 7.8501 14.45 7.9501 14.55 8.1101L18.05 14.1701C18.17 14.3201 18.17 14.5301 18.09 14.6801Z" fill="#555F62"/>
</svg>
