<svg width="24" height="24" viewBox="0 0 24 24" fill="none" xmlns="http://www.w3.org/2000/svg">
<path d="M19.88 2H4.12C3.52 2 3.06 2.51999 3.13 3.10999L4.93 19.33C4.97 19.73 5.26 20.07 5.65 20.18L11.73 21.92C11.91 21.97 12.1 21.97 12.28 21.92L18.36 20.18C18.75 20.07 19.03 19.73 19.08 19.33L20.88 3.10999C20.94 2.51999 20.48 2 19.88 2ZM16.25 16.08C16.22 16.38 16 16.63 15.71 16.72L12.21 17.72C12.14 17.74 12.07 17.75 12 17.75C11.93 17.75 11.86 17.74 11.79 17.72L8.29 16.72C8.03 16.65 7.83 16.44 7.77 16.18L7.27 14.18C7.17 13.78 7.41 13.37 7.82 13.27C8.22 13.17 8.63 13.41 8.73 13.82L9.13 15.4L12.01 16.22L14.82 15.42L15.23 11.75H8C7.59 11.75 7.25 11.41 7.25 11C7.25 10.59 7.59 10.25 8 10.25H15.38L15.66 7.75L7.5 7.73001C7.09 7.73001 6.75 7.39001 6.75 6.98001C6.75 6.57001 7.09 6.23001 7.5 6.23001L16.5 6.25C16.71 6.25 16.92 6.34 17.06 6.5C17.2 6.66 17.27 6.86999 17.25 7.07999L16.25 16.08Z" fill="#555F62"/>
</svg>
