<svg width="24" height="24" viewBox="0 0 24 24" fill="none" xmlns="http://www.w3.org/2000/svg">
<path d="M19.88 2H4.10996C3.50996 2 3.04997 2.52 3.11997 3.11L4.91995 19.33C4.95995 19.73 5.24999 20.07 5.63999 20.18L11.7199 21.92C11.8999 21.97 12.09 21.97 12.27 21.92L18.3499 20.18C18.7399 20.07 19.02 19.73 19.07 19.33L20.87 3.11C20.94 2.52 20.48 2 19.88 2ZM16.25 7.5H8.59L8.91995 10.5H15.75C15.96 10.5 16.16 10.59 16.31 10.75C16.45 10.91 16.52 11.12 16.5 11.33L16 16.33C15.97 16.64 15.76 16.89 15.46 16.98L11.96 17.98C11.89 18 11.82 18.01 11.75 18.01C11.68 18.01 11.6099 18 11.5399 17.98L8.03995 16.98C7.71995 16.89 7.49997 16.59 7.49997 16.26V14.26C7.49997 13.85 7.83997 13.51 8.24997 13.51C8.65997 13.51 8.99997 13.85 8.99997 14.26V15.69L11.75 16.48L14.55 15.68L14.92 12.01H8.24997C7.86997 12.01 7.54997 11.72 7.49997 11.34L6.99997 6.84C6.97997 6.63 7.03997 6.41999 7.18997 6.25999C7.32997 6.09999 7.53997 6.00999 7.74997 6.00999H16.25C16.66 6.00999 17 6.34999 17 6.75999C17 7.16999 16.66 7.5 16.25 7.5Z" fill="#555F62"/>
</svg>
