<svg width="24" height="24" viewBox="0 0 24 24" fill="none" xmlns="http://www.w3.org/2000/svg">
<path d="M20.26 5.25C19.43 5.25 18.76 4.58 18.76 3.75C18.76 2.92 19.43 2.25 20.26 2.25H20.27C21.1 2.25 21.77 2.92 21.77 3.75C21.77 4.58 21.09 5.25 20.26 5.25Z" fill="#555F62"/>
<path d="M3.76001 21.75C2.93001 21.75 2.26001 21.08 2.26001 20.25C2.26001 19.42 2.93001 18.75 3.76001 18.75H3.76999C4.59999 18.75 5.26999 19.42 5.26999 20.25C5.26999 21.08 4.59001 21.75 3.76001 21.75Z" fill="#555F62"/>
<path d="M6.03 16.4C5.78 16.4 5.53001 16.27 5.39001 16.04C4.65001 14.83 4.25 13.43 4.25 12C4.25 7.73 7.73 4.25 12 4.25C13.41 4.25 14.79 4.63001 15.99 5.35001C16.34 5.56001 16.46 6.02 16.25 6.38C16.04 6.73 15.58 6.85 15.22 6.64C14.25 6.06 13.14 5.75 12.01 5.75C8.56001 5.75 5.76001 8.55 5.76001 12C5.76001 13.15 6.07999 14.28 6.67999 15.26C6.89999 15.61 6.78999 16.07 6.42999 16.29C6.29999 16.37 6.16 16.4 6.03 16.4Z" fill="#555F62"/>
<path d="M12 19.75C10.56 19.75 9.16 19.35 7.95 18.61C7.6 18.39 7.49 17.93 7.7 17.58C7.92 17.23 8.38 17.12 8.73 17.33C9.71 17.93 10.84 18.25 12 18.25C15.45 18.25 18.25 15.45 18.25 12C18.25 10.85 17.93 9.72004 17.33 8.74004C17.11 8.39004 17.22 7.93004 17.58 7.71004C17.93 7.50004 18.39 7.60004 18.61 7.96004C19.35 9.18004 19.75 10.57 19.75 12.01C19.75 16.27 16.27 19.75 12 19.75Z" fill="#555F62"/>
</svg>
