<svg width="24" height="24" viewBox="0 0 24 24" fill="none" xmlns="http://www.w3.org/2000/svg">
<path d="M16.19 2H7.82001C4.18001 2 2.00999 4.17 2.00999 7.81V16.18C2.00999 19.82 4.18001 21.99 7.82001 21.99H16.19C19.83 21.99 22 19.82 22 16.18V7.81C22 4.17 19.83 2 16.19 2ZM11 7.5C11 7.78 10.78 8 10.5 8H9C8.45 8 8 8.45 8 9V10.5C8 10.78 7.78 11 7.5 11H5.5C5.22 11 5 10.78 5 10.5V9C5 6.79 6.79 5 9 5H10.5C10.78 5 11 5.22 11 5.5V7.5ZM19 15C19 17.21 17.21 19 15 19H13.5C13.22 19 13 18.78 13 18.5V16.5C13 16.22 13.22 16 13.5 16H15C15.55 16 16 15.55 16 15V13.5C16 13.22 16.22 13 16.5 13H18.5C18.78 13 19 13.22 19 13.5V15Z" fill="#555F62"/>
</svg>
