<svg width="24" height="24" viewBox="0 0 24 24" fill="none" xmlns="http://www.w3.org/2000/svg">
<path d="M19.88 2H4.10996C3.50996 2 3.04997 2.52 3.11997 3.11L4.91995 19.33C4.95995 19.73 5.24999 20.07 5.63999 20.18L11.7199 21.92C11.8999 21.97 12.09 21.97 12.27 21.92L18.3499 20.18C18.7399 20.07 19.02 19.73 19.07 19.33L20.87 3.11C20.94 2.52 20.48 2 19.88 2ZM11.37 15.99C11.37 16.23 11.26 16.45 11.07 16.59C10.94 16.69 10.78 16.74 10.62 16.74C10.55 16.74 10.4799 16.73 10.4099 16.71L7.28995 15.81C6.88995 15.69 6.66 15.28 6.78 14.88C6.89 14.48 7.30999 14.26 7.70999 14.37L9.86997 14.99V7.00999C9.86997 6.59999 10.21 6.25999 10.62 6.25999C11.03 6.25999 11.37 6.59999 11.37 7.00999V15.99V15.99ZM17.25 15.1C17.25 15.44 17.02 15.74 16.68 15.83L13.08 16.73C13.02 16.75 12.96 16.75 12.9 16.75C12.56 16.75 12.26 16.52 12.17 16.18C12.07 15.78 12.3099 15.37 12.7199 15.27L15.75 14.51V12.81L13.46 13.14C13.24 13.17 13.03 13.11 12.86 12.96C12.7 12.82 12.5999 12.61 12.5999 12.39V7.44C12.5999 7.07 12.87 6.75 13.24 6.7L16.39 6.25C16.8 6.19 17.18 6.48 17.24 6.89C17.3 7.3 17.0099 7.68001 16.5999 7.74001L14.09 8.10001V11.53L16.38 11.2C16.6 11.17 16.81 11.23 16.98 11.38C17.14 11.52 17.24 11.73 17.24 11.95V15.1H17.25Z" fill="#555F62"/>
</svg>
