<svg width="24" height="24" viewBox="0 0 24 24" fill="none" xmlns="http://www.w3.org/2000/svg">
<path fill-rule="evenodd" clip-rule="evenodd" d="M12.2708 11.0589C12.2708 11.2086 12.1491 11.3301 11.9992 11.3301C11.8494 11.3301 11.7277 11.2086 11.7277 11.0589C11.7277 10.9092 11.8494 10.7877 11.9992 10.7877C12.1491 10.7877 12.2708 10.9094 12.2708 11.0589ZM20.9998 8.2942V10.3758H20.9993C20.9993 11.0181 20.7784 11.6084 20.4109 12.0797C20.3797 12.1198 20.3475 12.159 20.3145 12.1971C20.3103 12.2021 20.3058 12.2065 20.3013 12.2115C20.2432 12.2775 20.1824 12.3399 20.1191 12.3996C20.0945 12.4229 20.0695 12.4455 20.0436 12.468C20.0107 12.4969 19.9775 12.525 19.9437 12.5521C19.8983 12.5884 19.8518 12.6232 19.8041 12.6564C19.7834 12.6707 19.7626 12.6852 19.7416 12.6992C19.6811 12.7392 19.619 12.777 19.5555 12.8122C19.5419 12.8197 19.5277 12.8265 19.514 12.8342C19.3694 12.9106 19.2178 12.9754 19.0597 13.0257C19.0494 13.0288 19.0397 13.0324 19.0295 13.0355C18.9521 13.0593 18.8733 13.0792 18.7934 13.0963C18.7798 13.0991 18.7664 13.1018 18.7529 13.1044C18.6728 13.1202 18.5918 13.1329 18.5093 13.1417C18.498 13.1427 18.4866 13.1434 18.4751 13.1445C18.3887 13.1526 18.3013 13.1579 18.2131 13.1579H17.385V12.7402C17.385 12.249 16.9848 11.8494 16.4929 11.8494C16.0011 11.8494 15.6008 12.249 15.6008 12.7402V13.1579L8.3986 13.1582V12.7404C8.3986 12.2493 7.99837 11.8497 7.50655 11.8497C7.01474 11.8497 6.61451 12.2493 6.61451 12.7404V13.1582H5.78629C5.69767 13.1582 5.61062 13.1529 5.52385 13.1448C5.5126 13.1438 5.5012 13.143 5.48994 13.142C5.40759 13.1333 5.32638 13.1205 5.24631 13.1047C5.23277 13.102 5.21938 13.0993 5.20584 13.0966C5.12577 13.0798 5.04698 13.0596 4.96976 13.0358C4.9595 13.0327 4.94981 13.0294 4.93969 13.026C4.78126 12.9755 4.62938 12.9109 4.48475 12.8341C4.47122 12.8268 4.4574 12.8201 4.44415 12.8126C4.38018 12.7774 4.3182 12.7393 4.25764 12.6993C4.23684 12.6855 4.2159 12.6715 4.19581 12.6569C4.14765 12.6234 4.10049 12.5881 4.05447 12.5514C4.02128 12.5248 3.98879 12.497 3.95673 12.4687C3.93066 12.4461 3.90544 12.4229 3.88051 12.3991C3.81796 12.3401 3.75727 12.2781 3.69985 12.2125C3.69429 12.2081 3.68931 12.2028 3.68475 12.1974C3.65184 12.1593 3.61978 12.1201 3.58844 12.08C3.221 11.6087 3 11.0182 3 10.3761V8.2942C3 7.90794 3.31487 7.59364 3.70154 7.59364H20.2983C20.6853 7.59364 21 7.90793 21 8.2942L20.9998 8.2942ZM12.8916 11.0589C12.8916 10.5678 12.4914 10.168 11.9996 10.168C11.5077 10.168 11.1074 10.5676 11.1074 11.0589C11.1074 11.55 11.5076 11.9498 11.9996 11.9498C12.4914 11.95 12.8916 11.5502 12.8916 11.0589V11.0589ZM16.764 14.1957V12.7405C16.764 12.5908 16.6424 12.4693 16.4925 12.4693C16.3426 12.4693 16.2209 12.5908 16.2209 12.7405V14.1957C16.2209 14.3453 16.3426 14.4668 16.4925 14.4668C16.6424 14.4668 16.764 14.3453 16.764 14.1957V14.1957ZM7.77794 14.1957V12.7405C7.77794 12.5908 7.65627 12.4693 7.50652 12.4693C7.35663 12.4693 7.23496 12.5908 7.23496 12.7405V14.1957C7.23496 14.3453 7.35692 14.4668 7.50652 14.4668C7.65612 14.4668 7.77794 14.3453 7.77794 14.1957V14.1957ZM20.3509 13.0216C20.2757 13.0828 20.1979 13.1404 20.1181 13.1946C20.1094 13.2004 20.1 13.2054 20.0912 13.2113C20.0124 13.2638 19.9313 13.3128 19.8488 13.3584C19.8267 13.3706 19.8034 13.3813 19.7809 13.393C19.7105 13.4298 19.6389 13.4649 19.566 13.4967C19.5376 13.5093 19.5083 13.5201 19.4792 13.5318C19.4104 13.5593 19.3415 13.585 19.2711 13.6079C19.2377 13.6187 19.2045 13.629 19.1708 13.6388C19.1022 13.6587 19.0333 13.6765 18.963 13.6923C18.9276 13.7003 18.8924 13.7085 18.8567 13.7153C18.7837 13.7293 18.7096 13.74 18.6352 13.7492C18.6023 13.7532 18.5702 13.7586 18.5369 13.7617C18.4296 13.772 18.3216 13.7782 18.2123 13.7782H17.3843V14.196C17.3843 14.6874 16.984 15.0869 16.4922 15.0869C16.0004 15.0869 15.6 14.6872 15.6 14.196V13.7782H8.39823V14.196C8.39823 14.6874 7.998 15.0869 7.50618 15.0869C7.01437 15.0869 6.61414 14.6872 6.61414 14.196V13.7782H5.78563C5.67621 13.7782 5.56821 13.772 5.46093 13.7617C5.42802 13.7586 5.39596 13.7532 5.36333 13.7492C5.28867 13.7398 5.2143 13.729 5.14092 13.7151C5.10573 13.7084 5.07082 13.7003 5.03592 13.6924C4.96525 13.6767 4.89543 13.6589 4.82619 13.6385C4.79342 13.6287 4.76079 13.6189 4.72817 13.6084C4.65665 13.585 4.58669 13.559 4.51731 13.5311C4.48924 13.5197 4.46103 13.5088 4.43324 13.497C4.35887 13.4647 4.28592 13.4291 4.21397 13.3914C4.19289 13.3803 4.17109 13.3706 4.15014 13.3591C4.06423 13.3119 3.98002 13.2609 3.89853 13.2063C3.89269 13.2023 3.88628 13.1992 3.88044 13.195C3.80022 13.1406 3.72229 13.0829 3.64678 13.0215V19.9585C3.64678 20.5328 4.11452 21 4.68971 21H19.3081C19.8833 21 20.3511 20.5328 20.3511 19.9585H20.3505L20.3509 13.0216ZM7.97563 6.87346C8.04815 6.06889 8.49582 5.38425 9.11471 4.88245C9.92298 4.22699 10.9665 3.91653 11.9994 3.91653C13.0324 3.91653 14.0759 4.22711 14.8842 4.88245C15.5025 5.38385 15.9505 6.06859 16.0233 6.87346L16.0386 7.04391H16.9569L16.942 6.84259C16.8613 5.76871 16.2891 4.84517 15.4613 4.17419C14.4892 3.38597 13.244 3 11.9994 3C10.7548 3 9.50979 3.38626 8.53754 4.17449C7.70991 4.84546 7.13755 5.76896 7.05735 6.84288L7.04239 7.0442H7.96066L7.97563 6.87346Z" fill="#555F62"/>
</svg>
