<svg width="24" height="24" viewBox="0 0 24 24" fill="none" xmlns="http://www.w3.org/2000/svg">
<path d="M17.82 8.70003C18.53 8.31003 19.4 8.82004 19.39 9.63004L19.35 15.05C19.34 15.87 18.45 16.37 17.75 15.95L13.07 13.15C12.37 12.73 12.39 11.71 13.1 11.32L17.82 8.70003Z" fill="#555F62"/>
<path d="M19.25 6.27992C19.4 6.65992 19.17 7.04992 18.81 7.24992L13.18 10.3599C12.38 10.7999 11.44 10.0899 11.64 9.20993L12.86 3.67991C13.01 2.97991 13.8 2.63993 14.42 2.98993L18.3401 5.22992C18.7701 5.47992 19.08 5.84992 19.25 6.27992Z" fill="#555F62"/>
<path d="M12.01 2.66995L9.94 11.9699C9.91 12.1099 9.91 12.26 9.94 12.41L11.67 21.0899C11.79 21.6899 11.28 22.2599 10.78 21.8899L5.48999 18.1199C4.92999 17.7199 4.59998 17.0799 4.59998 16.3999V7.08994C4.59998 6.32994 4.99998 5.62995 5.66998 5.24995L10.96 2.23995C11.11 2.14995 11.27 2.08994 11.43 2.03994C11.81 1.90994 12.09 2.28995 12.01 2.66995Z" fill="#555F62"/>
<path d="M17.63 16.81C18.28 17.2 18.32 18.13 17.71 18.57L14.24 21.09C13.62 21.54 12.73 21.2 12.58 20.44L11.56 15.24C11.38 14.34 12.35 13.66 13.14 14.13L17.63 16.81Z" fill="#555F62"/>
</svg>
