<svg width="24" height="24" viewBox="0 0 24 24" fill="none" xmlns="http://www.w3.org/2000/svg">
<path d="M16.1135 2C21.5725 2 22 2.427 22 7.8865V16.113C22 21.5725 21.5725 22 16.1135 22H7.8865C2.4275 22 2 21.5725 2 16.1135V7.8865C2 2.427 2.4275 2 7.8865 2H16.1135ZM8.5145 17.5V9.364H5.986V17.5H8.5145ZM7.2505 8.2005C8.063 8.2005 8.724 7.5395 8.724 6.726C8.724 5.9135 8.063 5.2525 7.2505 5.2525C6.436 5.2525 5.776 5.9125 5.776 6.726C5.776 7.5395 6.435 8.2005 7.2505 8.2005ZM18 17.5V13.0375C18 10.8465 17.527 9.1615 14.9665 9.1615C13.7365 9.1615 12.912 9.836 12.574 10.4755H12.54V9.364H10.1145V17.5H12.6415V13.475C12.6415 12.414 12.844 11.386 14.1595 11.386C15.4565 11.386 15.4735 12.5995 15.4735 13.5435V17.5H18Z" fill="#555F62"/>
</svg>
