<svg width="24" height="24" viewBox="0 0 24 24" fill="none" xmlns="http://www.w3.org/2000/svg">
<path d="M16.2399 9.51998L20.9499 14.23C21.2299 14.51 21.7199 14.36 21.7999 13.97C21.9299 13.33 21.9999 12.67 21.9999 12C21.9999 9.70998 21.2199 7.59998 19.9299 5.91998C19.7499 5.67998 19.3899 5.66998 19.1799 5.87998L16.2399 8.81998C16.0499 9.00998 16.0499 9.32998 16.2399 9.51998Z" fill="#555F62"/>
<path d="M14.4801 10.58L12.7101 12.35C12.5101 12.55 12.5101 12.86 12.7101 13.06L18.5301 18.88C18.7301 19.08 19.0501 19.08 19.2401 18.88C19.8601 18.23 20.3901 17.5 20.8201 16.71C20.9201 16.52 20.8801 16.27 20.7301 16.12L15.1901 10.58C14.9901 10.39 14.6701 10.39 14.4801 10.58Z" fill="#555F62"/>
<path d="M10.94 14.1201L9.18003 15.8801C8.98003 16.0801 8.98003 16.3901 9.18003 16.5901L14.1 21.5201C14.23 21.6501 14.42 21.7001 14.59 21.6501C15.52 21.4001 16.4 21.0201 17.2 20.5201C17.47 20.3501 17.51 19.9701 17.28 19.7401L11.65 14.1101C11.45 13.9301 11.13 13.9301 10.94 14.1201Z" fill="#555F62"/>
<path d="M18.0799 4.06991C16.0999 2.53991 13.5299 1.73991 10.7699 2.06991C6.25991 2.60991 2.60991 6.26991 2.06991 10.7699C1.73991 13.5299 2.53991 16.0899 4.06991 18.0799C4.24991 18.3199 4.60991 18.3299 4.81991 18.1199L18.1199 4.81991C18.3299 4.60991 18.3199 4.24991 18.0799 4.06991Z" fill="#555F62"/>
<path d="M7.39998 17.67L5.87998 19.19C5.66998 19.4 5.67998 19.76 5.91998 19.94C7.42998 21.11 9.27998 21.85 11.31 21.99C11.74 22.02 11.95 21.51 11.64 21.2L8.10998 17.67C7.91998 17.47 7.59998 17.47 7.39998 17.67Z" fill="#555F62"/>
</svg>
