<svg width="24" height="24" viewBox="0 0 24 24" fill="none" xmlns="http://www.w3.org/2000/svg">
<path d="M16.4201 6.41989V7.57989L9.14008 14.8599C8.18008 13.9899 7.58008 12.7099 7.58008 11.3399V6.41989C7.58008 4.35989 8.98008 2.64989 10.8801 2.15989C11.0701 2.10989 11.2501 2.26989 11.2501 2.45989V3.99989C11.2501 4.40989 11.5901 4.74989 12.0001 4.74989C12.4101 4.74989 12.7501 4.40989 12.7501 3.99989V2.45989C12.7501 2.26989 12.9301 2.10989 13.1201 2.15989C15.0201 2.64989 16.4201 4.35989 16.4201 6.41989Z" fill="#555F62"/>
<path d="M19.81 9.81012V11.4001C19.81 15.4701 16.68 18.8201 12.7 19.1701V21.3001C12.7 21.6901 12.39 22.0001 12 22.0001C11.61 22.0001 11.3 21.6901 11.3 21.3001V19.1701C10.21 19.0701 9.18001 18.7501 8.26001 18.2401L9.29001 17.2101C10.11 17.5901 11.03 17.8101 12 17.8101C15.54 17.8101 18.42 14.9301 18.42 11.4001V9.81012C18.42 9.43012 18.73 9.12012 19.12 9.12012C19.5 9.12012 19.81 9.43012 19.81 9.81012Z" fill="#555F62"/>
<path d="M16.42 10.0801V11.5301C16.42 14.1101 14.2 16.1801 11.56 15.9301C11.28 15.9001 11 15.8501 10.74 15.7601L16.42 10.0801Z" fill="#555F62"/>
<path d="M21.7701 2.22988C21.4701 1.92988 20.9801 1.92988 20.6801 2.22988L7.23012 15.6799C6.20012 14.5499 5.58012 13.0499 5.58012 11.3999V9.80988C5.58012 9.42988 5.27012 9.11988 4.88012 9.11988C4.50012 9.11988 4.19012 9.42988 4.19012 9.80988V11.3999C4.19012 13.4299 4.97012 15.2799 6.24012 16.6699L2.22012 20.6899C1.92012 20.9899 1.92012 21.4799 2.22012 21.7799C2.38012 21.9199 2.57012 21.9999 2.77012 21.9999C2.97012 21.9999 3.16012 21.9199 3.31012 21.7699L21.7701 3.30988C22.0801 3.00988 22.0801 2.52988 21.7701 2.22988Z" fill="#555F62"/>
</svg>
