<svg width="24" height="24" viewBox="0 0 24 24" fill="none" xmlns="http://www.w3.org/2000/svg">
<path d="M13.18 11.8601C12.78 11.8601 12.42 11.6401 12.25 11.2801L10.8 8.3901L10.38 9.1701C10.15 9.6001 9.68997 9.8701 9.19997 9.8701H8.46997C8.05997 9.8701 7.71997 9.5301 7.71997 9.1201C7.71997 8.7101 8.05997 8.3701 8.46997 8.3701H9.10997L9.89997 6.9101C10.09 6.5701 10.47 6.3401 10.83 6.3601C11.22 6.3601 11.57 6.5901 11.75 6.9301L13.18 9.7901L13.52 9.1001C13.75 8.6401 14.2 8.3601 14.72 8.3601H15.53C15.94 8.3601 16.28 8.7001 16.28 9.1101C16.28 9.5201 15.94 9.8601 15.53 9.8601H14.82L14.11 11.2701C13.93 11.6401 13.58 11.8601 13.18 11.8601Z" fill="#555F62"/>
<path d="M2.75 18.6498C2.34 18.6498 2 18.3098 2 17.8998V12.1998C1.95 9.4898 2.96 6.9298 4.84 5.0098C6.72 3.0998 9.24 2.0498 11.95 2.0498C17.49 2.0498 22 6.5598 22 12.0998V17.7998C22 18.2098 21.66 18.5498 21.25 18.5498C20.84 18.5498 20.5 18.2098 20.5 17.7998V12.0998C20.5 7.3898 16.67 3.5498 11.95 3.5498C9.64 3.5498 7.5 4.4398 5.91 6.0598C4.31 7.6898 3.46 9.8598 3.5 12.1798V17.8898C3.5 18.3098 3.17 18.6498 2.75 18.6498Z" fill="#555F62"/>
<path d="M5.94 12.4502H5.81C3.71 12.4502 2 14.1602 2 16.2602V18.1402C2 20.2402 3.71 21.9502 5.81 21.9502H5.94C8.04 21.9502 9.75 20.2402 9.75 18.1402V16.2602C9.75 14.1602 8.04 12.4502 5.94 12.4502Z" fill="#555F62"/>
<path d="M18.19 12.4502H18.06C15.96 12.4502 14.25 14.1602 14.25 16.2602V18.1402C14.25 20.2402 15.96 21.9502 18.06 21.9502H18.19C20.29 21.9502 22 20.2402 22 18.1402V16.2602C22 14.1602 20.29 12.4502 18.19 12.4502Z" fill="#555F62"/>
</svg>
