<svg width="24" height="24" viewBox="0 0 24 24" fill="none" xmlns="http://www.w3.org/2000/svg">
<path d="M22 6.27993V17.7099C22 17.8899 21.91 18.0499 21.76 18.1399L18.87 19.8699C18.71 19.9599 18.52 19.9599 18.36 19.8699L8.75 14.2799C8.6 14.1899 8.5 14.0299 8.5 13.8499V12.5199C8.5 12.1299 8.91999 11.8899 9.25999 12.0899L17.75 17.1799C18.08 17.3799 18.51 17.1399 18.51 16.7499V8.41992C18.51 8.23992 18.42 8.07993 18.27 7.98993L14.19 5.53992C13.87 5.34992 13.87 4.87992 14.19 4.67992L16.76 3.12993C16.92 3.02993 17.12 3.02993 17.28 3.12993L21.78 5.82993C21.91 5.93993 22 6.10993 22 6.27993Z" fill="#555F62"/>
<path d="M11.29 18.4299L7.25999 20.85C7.09999 20.95 6.9 20.95 6.75 20.85L2.25 18.15C2.1 18.06 2.00999 17.9 2.00999 17.72V6.28995C2.00999 6.10995 2.1 5.94996 2.25 5.85996L6.75 3.15996C6.91 3.05996 7.10999 3.05996 7.25999 3.15996L16.76 8.85996C16.91 8.94996 17 9.10995 17 9.28995V14.12C17 14.51 16.58 14.75 16.24 14.55L7.75 9.45996C7.42 9.25996 6.99001 9.49996 6.99001 9.88996V14.72C6.99001 14.9 7.08 15.06 7.23 15.15L11.27 17.58C11.61 17.77 11.61 18.2299 11.29 18.4299Z" fill="#555F62"/>
</svg>
