<svg width="24" height="24" viewBox="0 0 24 24" fill="none" xmlns="http://www.w3.org/2000/svg">
<path d="M14.15 22.0001H9.82998C8.28998 22.0001 7.14998 20.7501 7.44998 19.4201L7.96998 17.1001C8.06998 16.6401 8.47998 16.3201 8.94998 16.3201H15.04C15.51 16.3201 15.91 16.6401 16.02 17.1001L16.54 19.4101C16.86 20.8401 15.79 22.0001 14.15 22.0001Z" fill="#555F62"/>
<path d="M18.8201 13.69L17.7501 14.63C17.3801 14.95 16.9101 15.13 16.4301 15.13H7.59008C7.10008 15.13 6.62008 14.95 6.26008 14.62L5.21007 13.68C3.49007 12.27 3.48007 11.19 4.80007 9.53L10.0301 2.92C10.0666 2.87094 10.1041 2.82374 10.1425 2.77836C10.5835 2.25735 11.2701 2.70487 11.2701 3.38743V6.86C11.2601 7.29 11.6001 7.63 12.0201 7.62C12.4401 7.63 12.7701 7.29 12.7801 6.86V3.38743C12.7801 2.70487 13.4564 2.2676 13.9091 2.77848C13.9466 2.82077 13.9836 2.8646 14.0201 2.91L19.2301 9.53C20.5301 11.19 20.4801 12.22 18.8201 13.69Z" fill="#555F62"/>
</svg>
