<svg width="24" height="24" viewBox="0 0 24 24" fill="none" xmlns="http://www.w3.org/2000/svg">
<path d="M19 7C19 7.18 18.99 7.34999 18.97 7.51999C18.85 8.96999 18.21 10.28 17.24 11.24C16.16 12.33 14.66 13 13 13H9.86999C9.36999 13 8.95 13.37 8.88 13.86L8.11999 19.14C8.05999 19.53 7.78 19.85 7.41 19.95C7.32 19.99 7.23 20 7.13 20H5.17999C4.55999 20 4.09 19.45 4.19 18.84L6.57998 4.51001C6.81998 3.06001 8.07001 2 9.54001 2H14C16.76 2 19 4.24 19 7Z" fill="#555F62"/>
<path d="M21 10.9999C21 12.3799 20.44 13.6299 19.54 14.5399C18.63 15.4399 17.38 15.9999 16 15.9999H13.85C13.36 15.9999 12.94 16.3499 12.86 16.8399L12.14 21.1599C12.06 21.6499 11.64 21.9999 11.15 21.9999H8.22001C8.04001 21.9999 7.88 21.9599 7.74 21.8799C7.52 21.7599 7.66001 21.4699 7.90001 21.3699C8.80001 21.0799 9.46002 20.3099 9.60002 19.3499L10.24 14.9299C10.28 14.6799 10.49 14.4999 10.73 14.4999H13C15.01 14.4999 16.9 13.7199 18.3 12.3099C19.13 11.4899 19.75 10.4799 20.11 9.38992C20.19 9.13992 20.52 9.08991 20.63 9.31991C20.87 9.83991 21 10.3999 21 10.9999Z" fill="#555F62"/>
</svg>
