<svg width="24" height="24" viewBox="0 0 24 24" fill="none" xmlns="http://www.w3.org/2000/svg">
<path d="M6.5 2C5.44 2 4.46 2.37 3.69 2.99C2.65 3.81 2 5.08 2 6.5C2 7.34 2.24 8.14 2.65 8.82C3.19 9.72 4.04 10.42 5.06 10.76C5.51 10.92 5.99 11 6.5 11C7.64 11 8.67 10.58 9.46 9.88C9.81 9.58 10.11 9.22 10.35 8.82C10.56 8.47 10.72 8.1 10.83 7.7C10.94 7.32 11 6.91 11 6.5C11 4.01 8.99 2 6.5 2ZM8.16 7.25H7.27V8.18C7.27 8.59 6.93 8.93 6.52 8.93C6.11 8.93 5.77 8.6 5.77 8.18V7.25H4.8C4.39 7.25 4.05 6.91 4.05 6.5C4.05 6.09 4.39 5.75 4.8 5.75H5.77V4.82C5.77 4.41 6.11 4.07 6.52 4.07C6.93 4.07 7.27 4.4 7.27 4.82V5.75H8.16C8.57 5.75 8.91 6.09 8.91 6.5C8.91 6.91 8.58 7.25 8.16 7.25Z" fill="#555F62"/>
<path d="M16.0001 21.2899L6.6401 22.3899C5.9901 22.4699 5.4101 22.3699 4.9201 22.1299C4.4001 21.8699 3.9901 21.4699 3.7301 20.9399C3.4901 20.4499 3.4001 19.8799 3.4701 19.2399L4.3201 12.0899C4.4001 12.1199 4.4801 12.1499 4.5601 12.1699C5.1701 12.3899 5.8201 12.4999 6.5001 12.4999C7.9601 12.4999 9.3701 11.9699 10.4401 11.0199C10.9001 10.6199 11.3101 10.1399 11.6401 9.58991C11.9201 9.11991 12.1301 8.61991 12.2701 8.12991C12.3401 7.86991 12.4001 7.58991 12.4401 7.30991C12.4501 7.25991 12.4501 7.20991 12.4501 7.15991L12.6201 7.16991L18.7001 13.2599L18.9601 17.6799C19.2101 20.1599 18.3501 21.0199 16.0001 21.2899Z" fill="#555F62"/>
<path d="M22.0001 10.2799L19.9301 11.5899C19.5401 11.8299 19.0401 11.7799 18.7201 11.4499L14.2901 7.0199C13.9701 6.6999 13.9101 6.1999 14.1501 5.8099L15.4601 3.7399C16.2601 2.4799 17.8601 2.4199 19.0501 3.5899L22.1601 6.6999C23.2501 7.8099 23.1801 9.5299 22.0001 10.2799Z" fill="#555F62"/>
</svg>
