<svg width="24" height="24" viewBox="0 0 24 24" fill="none" xmlns="http://www.w3.org/2000/svg">
<path d="M20.5501 9.44004H19.4501C19.3001 9.44004 19.1501 9.47004 19.0101 9.51004L14.0201 4.52004C14.5001 3.90004 14.4601 3.01004 13.8901 2.45004L13.1101 1.67004C12.5201 1.08004 11.4801 1.08004 10.8801 1.67004L10.1001 2.45004C9.54012 3.01004 9.50012 3.90004 9.98012 4.52004L4.99012 9.51004C4.85012 9.47004 4.70012 9.44004 4.55012 9.44004H3.45012C2.58012 9.44004 1.87012 10.15 1.87012 11.02V12.12C1.87012 12.99 2.58012 13.7 3.45012 13.7H4.55012C5.42012 13.7 6.13012 12.99 6.13012 12.12V11.02C6.13012 10.87 6.10012 10.72 6.06012 10.58L11.0501 5.59004C11.3201 5.80004 11.6601 5.91004 12.0001 5.91004C12.3401 5.91004 12.6801 5.79004 12.9601 5.58004L17.9501 10.57C17.9101 10.71 17.8801 10.86 17.8801 11.01V12.11C17.8801 12.98 18.5901 13.69 19.4601 13.69H20.5601C21.4301 13.69 22.1401 12.98 22.1401 12.11V11.01C22.1201 10.14 21.4201 9.44004 20.5501 9.44004Z" fill="#555F62"/>
<path d="M15.75 16.55L14.11 18H9.85005L8.21005 16.55C7.26005 15.77 7.26005 15.17 7.98005 14.25L10.87 10.59C11.07 10.34 11.3001 10.17 11.5601 10.08C11.8301 9.98995 12.12 9.98995 12.4 10.08C12.65 10.17 12.88 10.34 13.09 10.59L15.98 14.25C16.7 15.16 16.67 15.73 15.75 16.55Z" fill="#555F62"/>
<path d="M13.2899 22.0001H10.6999C9.77989 22.0001 9.08989 21.2501 9.26989 20.4501L9.57989 19.0601C9.63989 18.7801 9.88989 18.5901 10.1699 18.5901H13.8199C14.0999 18.5901 14.3399 18.7801 14.4099 19.0601L14.7199 20.4501C14.9199 21.3001 14.2699 22.0001 13.2899 22.0001Z" fill="#555F62"/>
</svg>
