<svg width="24" height="24" viewBox="0 0 24 24" fill="none" xmlns="http://www.w3.org/2000/svg">
<path d="M20.98 10.7C20.76 6.8 17.87 3.55 14.01 2.89C13.95 2.12 13.31 1.5 12.52 1.5H11.52C10.73 1.5 10.1 2.11 10.03 2.88C6.15002 3.52 3.24002 6.78 3.02002 10.7C2.31002 10.82 1.77002 11.43 1.77002 12.17V13.17C1.77002 14 2.44002 14.67 3.27002 14.67H4.27002C5.10002 14.67 5.77002 14 5.77002 13.17V12.17C5.77002 11.43 5.23002 10.82 4.52002 10.7C4.73002 7.58 7.02002 4.99 10.08 4.39C10.25 5.03 10.83 5.5 11.52 5.5H12.52C13.21 5.5 13.78 5.03 13.96 4.4C17 5.01 19.27 7.6 19.48 10.7C18.77 10.82 18.23 11.43 18.23 12.17V13.17C18.23 14 18.9 14.67 19.73 14.67H20.73C21.56 14.67 22.23 14 22.23 13.17V12.17C22.23 11.43 21.69 10.81 20.98 10.7Z" fill="#555F62"/>
<path d="M15.7701 16.55L14.1301 18H9.88008L8.24008 16.55C7.29008 15.77 7.29008 15.17 8.01008 14.25L10.9001 10.59C11.1001 10.34 11.3301 10.17 11.5901 10.08C11.8601 9.98995 12.1501 9.98995 12.4301 10.08C12.6801 10.17 12.9101 10.34 13.1201 10.59L16.0001 14.24C16.7301 15.16 16.6901 15.73 15.7701 16.55Z" fill="#555F62"/>
<path d="M13.3202 21.9998H10.7302C9.81017 21.9998 9.12017 21.2498 9.30017 20.4498L9.61017 19.0598C9.67017 18.7798 9.92017 18.5898 10.2002 18.5898H13.8502C14.1302 18.5898 14.3702 18.7798 14.4402 19.0598L14.7502 20.4498C14.9402 21.2998 14.3002 21.9998 13.3202 21.9998Z" fill="#555F62"/>
</svg>
