<svg width="24" height="24" viewBox="0 0 24 24" fill="none" xmlns="http://www.w3.org/2000/svg">
<path d="M21.85 10.2499C21.07 5.79992 17.24 2.34992 12.73 2.02992C6.62996 1.58992 1.58996 6.63991 2.02996 12.7299C2.34996 17.2399 5.79996 21.0599 10.25 21.8399C11.4 22.0399 12.52 22.0399 13.59 21.8599C13.9 21.8099 14.08 21.4699 13.96 21.1899C13.66 20.5099 13.5 19.7599 13.5 18.9899C13.5 17.2999 14.25 15.7399 15.57 14.6999C16.54 13.9199 17.76 13.4899 19 13.4899C19.78 13.4899 20.52 13.6499 21.19 13.9499C21.48 14.0799 21.81 13.8899 21.87 13.5799C22.05 12.5199 22.05 11.3999 21.85 10.2499ZM14.5 13.5699L13.3 14.2599L12.1 14.9499C10.61 15.8099 9.38996 15.1099 9.38996 13.3799V11.9999V10.6099C9.38996 8.88991 10.61 8.17992 12.1 9.03992L13.3 9.72992L14.5 10.4199C15.99 11.2999 15.99 12.6999 14.5 13.5699Z" fill="#555F62"/>
<path d="M19 15C18.06 15 17.19 15.33 16.5 15.88C15.58 16.61 15 17.74 15 19C15 19.75 15.21 20.46 15.58 21.06C16.27 22.22 17.54 23 19 23C20.01 23 20.93 22.63 21.63 22C21.94 21.74 22.21 21.42 22.42 21.06C22.79 20.46 23 19.75 23 19C23 16.79 21.21 15 19 15ZM20.5 19.73H19.75V20.51C19.75 20.92 19.41 21.26 19 21.26C18.59 21.26 18.25 20.92 18.25 20.51V19.73H17.5C17.09 19.73 16.75 19.39 16.75 18.98C16.75 18.57 17.09 18.23 17.5 18.23H18.25V17.52C18.25 17.11 18.59 16.77 19 16.77C19.41 16.77 19.75 17.11 19.75 17.52V18.23H20.5C20.91 18.23 21.25 18.57 21.25 18.98C21.25 19.39 20.91 19.73 20.5 19.73Z" fill="#555F62"/>
</svg>
