<svg width="24" height="24" viewBox="0 0 24 24" fill="none" xmlns="http://www.w3.org/2000/svg">
<path d="M15.02 2.23006C13.02 1.92006 10.98 1.92006 8.98 2.23006C8.16 2.36006 7.55998 3.06005 7.55998 3.88005V7.56005H3.87999C3.05999 7.56005 2.36 8.16006 2.23 8.98006C1.92 10.9801 1.92 13.02 2.23 15.02C2.36 15.84 3.05999 16.4401 3.87999 16.4401H5.55998C5.83998 16.4401 6.05998 16.2201 6.05998 15.9401V14.22C6.05998 12.17 7.72999 10.5 9.77999 10.5H14.22C14.62 10.5 14.94 10.18 14.94 9.78005V6.56005C14.94 6.28005 15.16 6.06005 15.44 6.06005H15.94C16.22 6.06005 16.44 5.84005 16.44 5.56005V3.88005C16.44 3.06005 15.84 2.36006 15.02 2.23006ZM10.33 5.58003C9.91997 5.58003 9.52999 5.19005 9.52999 4.78005C9.52999 4.36005 9.91997 3.97005 10.33 3.97005C10.53 3.97005 10.75 4.06006 10.89 4.20006C11.04 4.34006 11.14 4.57005 11.14 4.78005C11.14 5.19005 10.75 5.58003 10.33 5.58003Z" fill="#555F62"/>
<path d="M21.77 8.98007C21.64 8.16007 20.94 7.56006 20.12 7.56006H16.94C16.66 7.56006 16.44 7.78006 16.44 8.06006V9.78006C16.44 11.0001 15.45 12.0001 14.22 12.0001H9.78C8.55 12.0001 7.56 12.9901 7.56 14.2201V20.1201C7.56 20.9401 8.16001 21.6401 8.98001 21.7701C10.98 22.0801 13.02 22.0801 15.02 21.7701C15.84 21.6401 16.44 20.9401 16.44 20.1201V16.4401H20.12C20.94 16.4401 21.64 15.8401 21.77 15.0201C22.08 13.0201 22.08 10.9801 21.77 8.98007ZM13.67 20.0301C13.26 20.0301 12.86 19.6401 12.86 19.2201C12.86 18.8001 13.25 18.4101 13.67 18.4101C13.86 18.4101 14.09 18.5001 14.23 18.6301C14.38 18.7701 14.48 19.0101 14.48 19.2101C14.47 19.6401 14.08 20.0301 13.67 20.0301Z" fill="#555F62"/>
</svg>
