<svg width="24" height="24" viewBox="0 0 24 24" fill="none" xmlns="http://www.w3.org/2000/svg">
<path d="M20.49 6.71008L12.49 2.27008C12.19 2.10008 11.82 2.10008 11.52 2.27008L3.52002 6.71008C3.20002 6.89008 3.01001 7.22008 3.01001 7.58008V16.4001C3.01001 16.7601 3.21002 17.1001 3.52002 17.2701L11.54 21.7301C11.83 21.8901 12.18 21.9001 12.47 21.7501L16.5 19.7401C16.81 19.5801 17.18 19.6001 17.48 19.7901L19.47 21.0401C20.14 21.4601 21 20.9801 21 20.1901V17.5801C21 17.2201 20.8 16.8801 20.49 16.7101L17.49 15.0501C17.19 14.8801 16.82 14.8801 16.52 15.0501L12.49 17.2901C12.19 17.4601 11.82 17.4601 11.52 17.2901L7.52002 15.0701C7.20002 14.8901 7.01001 14.5601 7.01001 14.2001V9.82008C7.01001 9.46008 7.21002 9.12007 7.52002 8.95007L11.52 6.73007C11.82 6.56007 12.19 6.56007 12.49 6.73007L16.49 8.95007C16.81 9.13007 17 9.46008 17 9.82008V12.8801C17 13.6901 17.91 14.1601 18.57 13.7001L20.57 12.3101C20.84 12.1201 21 11.8201 21 11.4901V7.60008C21 7.23008 20.8 6.89008 20.49 6.71008Z" fill="#555F62"/>
<path d="M15.86 10.4201V13.5701C15.86 13.9201 15.67 14.2401 15.36 14.4101L12.47 16.0201C12.18 16.1801 11.82 16.1801 11.53 16.0201L8.64001 14.4101C8.33001 14.2401 8.14001 13.9201 8.14001 13.5701V10.4201C8.14001 10.0701 8.33001 9.7501 8.64001 9.5801L11.53 7.9701C11.82 7.8101 12.18 7.8101 12.47 7.9701L15.36 9.5801C15.67 9.7501 15.86 10.0701 15.86 10.4201Z" fill="#555F62"/>
</svg>
