<svg width="24" height="24" viewBox="0 0 24 24" fill="none" xmlns="http://www.w3.org/2000/svg">
<circle cx="12" cy="12" r="10" fill="#555F62"/>
<path d="M15.2811 9.58725C15.2125 7.8467 13.8558 6.43511 12.1289 6.29806C11.1558 6.21585 10.1965 6.5447 9.49758 7.20261C8.81233 7.84674 8.42859 8.72386 8.42859 9.6695C8.42859 10.1218 8.79865 10.4918 9.25094 10.4918C9.70322 10.4918 10.0733 10.1218 10.0733 9.6695C10.0733 9.18978 10.2651 8.73761 10.6214 8.40865C10.9915 8.06602 11.4849 7.90159 12.0056 7.9427C12.8964 8.01125 13.6091 8.76505 13.6365 9.65582C13.664 10.3274 13.3213 10.9167 12.732 11.2318C11.6904 11.7937 11.0326 12.9037 11.0326 14.1236C11.0326 14.5759 11.4027 14.9459 11.8549 14.9459C12.3072 14.9459 12.6773 14.5759 12.6773 14.1236C12.6773 13.5069 12.9925 12.945 13.5133 12.6709C14.6507 12.0542 15.3222 10.8756 15.2811 9.58727L15.2811 9.58725Z" fill="#555F62"/>
<path d="M13.0879 16.6181C13.0879 17.2237 12.597 17.7145 11.9915 17.7145C11.386 17.7145 10.8951 17.2237 10.8951 16.6181C10.8951 16.0126 11.386 15.5217 11.9915 15.5217C12.597 15.5217 13.0879 16.0126 13.0879 16.6181Z" fill="#555F62"/>
</svg>
