<svg width="24" height="24" viewBox="0 0 24 24" fill="none" xmlns="http://www.w3.org/2000/svg">
<path d="M16.0098 20.97C16.0154 21.5261 15.5661 21.98 15.0099 21.98H8.99325C8.44357 21.98 7.99695 21.5364 7.99327 20.9867L7.97998 19C7.97998 17.9 8.86998 17 9.97998 17H13.99C15.09 17 15.98 17.89 15.99 18.99L16.0098 20.97Z" fill="#555F62"/>
<path d="M18.5 9.99986V12.1699C18.5 12.6999 18.71 13.2099 19.09 13.5899L19.91 14.4099C20.29 14.7899 20.5 15.2999 20.5 15.8299V16.9999C20.5 19.301 19.5911 20.9935 17.6057 21.666C17.3045 21.7681 17.0089 21.5302 17.0078 21.2122L17 18.9799C16.98 17.3399 15.63 15.9999 14 15.9999H9.99C8.33 15.9999 6.99 17.3499 6.99 18.9999V21.224C6.99 21.5415 6.69629 21.7803 6.3949 21.6806C4.386 21.0158 3.5 19.3129 3.5 16.9999V6.99986C3.5 4.59383 4.45179 2.83365 6.64523 2.23637C6.94579 2.15453 7.2259 2.39608 7.22143 2.70755L7.19 4.89986C7.18 5.36986 7.35 5.81986 7.67 6.15986C8 6.49986 8.43 6.68986 8.94 6.69986C9.45417 6.69986 9.91203 6.48711 10.2245 6.14081C10.3367 6.01643 10.5516 6.01142 10.67 6.12986V6.12986C10.99 6.46986 11.43 6.66986 11.94 6.67986C12.4543 6.67986 12.9235 6.45381 13.2436 6.08994C13.3488 5.97036 13.5642 5.96083 13.67 6.07986V6.07986C13.99 6.41986 14.43 6.61986 14.94 6.62986C15.9 6.62986 16.67 5.87986 16.69 4.90986L16.7297 2.68651C16.7351 2.3822 17.0106 2.15123 17.3047 2.22941C19.5087 2.81519 20.5 4.58705 20.5 6.99986V7.99986C20.5 8.54986 20.05 8.99986 19.5 8.99986C18.95 8.99986 18.5 9.44986 18.5 9.99986Z" fill="#555F62"/>
<path d="M9.22818 2.0033C9.50889 2.00149 9.73608 2.23107 9.73134 2.51174L9.68998 4.96C9.67998 5.37 9.34998 5.7 8.93998 5.7H8.92998C8.50998 5.69 8.17998 5.35 8.18998 4.93V2.50679C8.18998 2.2319 8.41188 2.00857 8.68675 2.00679L9.22818 2.0033Z" fill="#555F62"/>
<path d="M12.2314 2C12.5109 2 12.7361 2.22906 12.7314 2.50847L12.69 4.95C12.68 5.35 12.35 5.68 11.94 5.68H11.93C11.51 5.67 11.18 5.33 11.19 4.92L11.19 2.5C11.19 2.22386 11.4138 2 11.69 2H12.2314Z" fill="#555F62"/>
<path d="M15.2344 2.00658C15.5127 2.00833 15.736 2.23699 15.7312 2.51525L15.69 4.88977C15.68 5.29977 15.35 5.62977 14.94 5.62977H14.93C14.51 5.61977 14.18 5.27977 14.19 4.86977V2.50316C14.19 2.22579 14.4158 2.00142 14.6931 2.00317L15.2344 2.00658Z" fill="#555F62"/>
</svg>
