<svg width="24" height="24" viewBox="0 0 24 24" fill="none" xmlns="http://www.w3.org/2000/svg">
<path d="M18.4889 17.7333C18.4889 18.1531 18.1531 18.4889 17.7333 18.4889H5.26667C4.84695 18.4889 4.51111 18.1531 4.51111 17.7333V5.26667C4.51111 4.84695 4.84695 4.51111 5.26667 4.51111H10.1778V3H5.26667C4.00733 3 3 4.00737 3 5.26667V17.7333C3 18.9927 4.00737 20 5.26667 20H17.7333C18.9927 20 20 18.9926 20 17.7333V12.8222H18.4889V17.7333Z" fill="#555F62"/>
<path d="M11.5764 3.00004V4.77344H16.9705L10 11.7439L11.2561 13L18.2266 6.02956V11.4236H20V3L11.5764 3.00004Z" fill="#555F62"/>
</svg>
