<svg width="24" height="24" viewBox="0 0 24 24" fill="none" xmlns="http://www.w3.org/2000/svg">
<path d="M21.1644 18.6004C19.5882 14.3218 12.9901 13.8284 10.5714 13.7925V16.0884C10.5714 16.5701 10.0043 16.8318 9.63561 16.5226L3.59482 11.4609C3.32519 11.2349 3.32321 10.8186 3.59284 10.5926L9.6358 5.52917C10.0046 5.2199 10.5696 5.48159 10.5696 5.96337V8.2354C13.2877 8.29884 21.1644 9.27825 21.1644 18.6004L21.1644 18.6004Z" fill="#555F62"/>
<path d="M21.5433 18.4951C21.2221 17.6307 20.7027 16.8615 20.0266 16.235C19.3724 15.6303 18.6031 15.1565 17.7903 14.7897C16.9576 14.415 16.0892 14.1374 15.201 13.9312C14.3743 13.7409 13.5337 13.612 12.6911 13.5228C12.0468 13.4554 11.4004 13.4138 10.7522 13.3999C10.6907 13.3979 10.6293 13.3979 10.5678 13.3959C10.3537 13.392 10.1713 13.5803 10.1713 13.7924C10.1713 14.5498 10.1752 15.3052 10.1713 16.0625V16.0883V16.114C10.1732 16.1993 10.197 16.0248 10.1732 16.1041C10.1693 16.12 10.1653 16.1339 10.1613 16.1497C10.1574 16.1636 10.1514 16.1795 10.1455 16.1933C10.1693 16.1378 10.1752 16.122 10.1613 16.1497C10.1514 16.1616 10.1415 16.1834 10.1336 16.1973C10.1039 16.2508 10.1475 16.1735 10.1554 16.1695C10.1356 16.1775 10.092 16.227 10.0781 16.2449C10.1316 16.1775 10.1276 16.2072 10.086 16.233C10.0761 16.2389 10.0543 16.2469 10.0483 16.2528C10.086 16.2092 10.1276 16.227 10.0721 16.2409C10.0483 16.2469 10.0226 16.2548 9.99878 16.2607C9.93732 16.2766 10.0325 16.2528 10.0384 16.2548C10.0265 16.2488 9.98688 16.2548 9.973 16.2568C9.93533 16.2588 9.93533 16.233 10.0127 16.2647C9.99283 16.2568 9.96706 16.2568 9.94723 16.2508C9.93732 16.2488 9.91155 16.235 9.90362 16.2369C9.96508 16.233 9.97102 16.2746 9.92344 16.2429C9.91749 16.2389 9.87586 16.2092 9.87189 16.2112C10.4409 15.9376 9.92344 16.2548 9.91155 16.2429C9.9056 16.235 9.8937 16.229 9.88577 16.2211C9.73312 16.0902 9.57847 15.9634 9.4258 15.8345C8.73983 15.2596 8.05385 14.6846 7.36788 14.1097C6.58874 13.4574 5.80959 12.8031 5.03041 12.1509C4.64382 11.8277 4.25127 11.5105 3.87257 11.1794L3.87059 11.1774C3.85077 11.1596 3.83094 11.1398 3.81112 11.1199C3.76552 11.0763 3.83094 11.1358 3.82499 11.1378C3.81905 11.1398 3.79724 11.0882 3.79129 11.0823C3.75957 11.0506 3.81508 11.1695 3.79724 11.0942C3.79327 11.0763 3.78931 11.0486 3.78138 11.0327C3.77543 11.003 3.77741 11.0169 3.78534 11.0763C3.78336 11.0605 3.78336 11.0426 3.78336 11.0248C3.78336 11.0169 3.78733 10.9752 3.78534 10.9732C3.78336 10.9911 3.77939 11.0109 3.77741 11.0287C3.78138 11.0129 3.78336 10.995 3.78931 10.9792C3.79129 10.9732 3.80319 10.9296 3.80517 10.9296C3.82301 10.9376 3.7556 11.0109 3.80319 10.9435C3.82896 10.9058 3.8468 10.9098 3.79327 10.9475C3.80517 10.9395 3.81905 10.9177 3.82896 10.9078C3.84284 10.8939 3.85671 10.882 3.87059 10.8701C3.90231 10.8424 3.93602 10.8166 3.96774 10.7889C4.166 10.6223 4.36427 10.4558 4.56449 10.2893C5.29209 9.67861 6.01971 9.06997 6.7473 8.45933C7.50267 7.82491 8.26002 7.19248 9.01535 6.55806C9.24929 6.36178 9.48322 6.16551 9.71716 5.96924C9.77267 5.92166 9.82819 5.87606 9.8837 5.82848C9.89163 5.82055 9.90154 5.8146 9.90947 5.80667C9.90353 5.8146 9.83414 5.85425 9.88965 5.82451C9.90551 5.81658 9.92732 5.80667 9.9412 5.79477C9.97688 5.76305 9.84802 5.82253 9.92137 5.8027C9.93921 5.79874 9.95904 5.79279 9.9749 5.78684C10.0284 5.77098 10.0086 5.80865 9.94714 5.78883C9.95706 5.79081 9.98085 5.78684 9.99076 5.78684C10.0978 5.78684 9.9293 5.76702 9.99473 5.78288C10.0264 5.79081 10.0582 5.8027 10.0879 5.81063C10.1355 5.82253 9.99869 5.76107 10.0621 5.8027C10.074 5.81063 10.0879 5.81856 10.0998 5.82451C10.1692 5.8602 10.0344 5.75909 10.0899 5.8146C10.0998 5.82451 10.1117 5.83442 10.1216 5.84434C10.1652 5.88795 10.1315 5.89192 10.1157 5.83046C10.1196 5.8483 10.1414 5.87209 10.1513 5.88597C10.193 5.94941 10.1355 5.8146 10.1434 5.86416C10.1474 5.882 10.1553 5.90183 10.1613 5.91967C10.1632 5.92562 10.1652 5.95932 10.1712 5.96527C10.1692 5.94544 10.1652 5.9276 10.1632 5.90778C10.1652 5.92364 10.1652 5.94148 10.1652 5.95734V5.97915V6.43713V7.92407V8.22939C10.1652 8.44747 10.3476 8.62193 10.5618 8.62592C10.871 8.63385 11.1823 8.64971 11.4896 8.67747C11.674 8.69333 11.8584 8.71315 12.0408 8.73496C12.0864 8.74091 12.132 8.74686 12.1756 8.7528C12.017 8.73298 12.1795 8.7528 12.2351 8.76073C12.3362 8.77461 12.4373 8.79047 12.5404 8.80831C13.4523 8.95899 14.3505 9.19691 15.2089 9.53989C15.2604 9.55972 15.312 9.58153 15.3635 9.60334C15.429 9.62911 15.2664 9.5617 15.3298 9.58946C15.3457 9.59541 15.3616 9.60334 15.3754 9.60928C15.4072 9.62316 15.4369 9.63704 15.4686 9.64894C15.5816 9.6985 15.6946 9.75203 15.8076 9.80556C16.0416 9.91857 16.2696 10.0395 16.4936 10.1703C16.7236 10.3032 16.9456 10.4479 17.1637 10.6005C17.2172 10.6382 17.2708 10.6779 17.3243 10.7155C17.3481 10.7334 17.3719 10.7512 17.3957 10.7691C17.4095 10.779 17.4254 10.7909 17.4393 10.8028C17.4948 10.8444 17.4393 10.8048 17.4155 10.7849C17.5206 10.8761 17.6336 10.9594 17.7406 11.0506C17.9508 11.231 18.151 11.4213 18.3413 11.6196C18.4405 11.7227 18.5356 11.8277 18.6288 11.9368C18.72 12.0438 18.8013 12.1687 18.8984 12.2679C18.8033 12.1727 18.8965 12.2659 18.9202 12.2976C18.9401 12.3234 18.9599 12.3511 18.9797 12.3769C19.0273 12.4404 19.0729 12.5058 19.1185 12.5712C19.2018 12.6941 19.2831 12.819 19.3604 12.9439C19.5249 13.2136 19.6736 13.4911 19.8084 13.7766C19.8421 13.848 19.8758 13.9213 19.9076 13.9947C19.9214 14.0284 19.9353 14.0621 19.9512 14.0958C19.8957 13.9729 19.9571 14.1117 19.971 14.1434C20.0364 14.304 20.0959 14.4665 20.1534 14.6311C20.2664 14.9622 20.3616 15.2972 20.4428 15.6382C20.4865 15.8266 20.5261 16.0149 20.5598 16.2033C20.5777 16.2964 20.5935 16.3896 20.6074 16.4848C20.6133 16.5284 20.6213 16.572 20.6272 16.6137C20.6312 16.6394 20.6352 16.6652 20.6391 16.693C20.6411 16.7009 20.6411 16.7108 20.6431 16.7187C20.649 16.7623 20.6471 16.7544 20.6391 16.693C20.6589 16.7108 20.655 16.8258 20.6589 16.8535C20.6649 16.8991 20.6689 16.9428 20.6748 16.9884C20.6867 17.0974 20.6966 17.2084 20.7065 17.3175C20.7244 17.5256 20.7363 17.7338 20.7462 17.942C20.7561 18.1601 20.7601 18.3762 20.7601 18.5943C20.7601 18.8024 20.9425 19.0007 21.1566 18.9908C21.3707 18.9809 21.5531 18.8163 21.5531 18.5943C21.5511 17.0082 21.3331 15.3924 20.7304 13.9155C20.2486 12.7359 19.5468 11.6573 18.6209 10.779C17.8199 10.0197 16.8802 9.41304 15.8731 8.96895C14.975 8.57241 14.0332 8.28497 13.0677 8.10258C12.3143 7.9638 11.5431 7.87458 10.7699 7.84683C10.7025 7.84484 10.6351 7.84286 10.5677 7.84088C10.7005 7.97371 10.8314 8.10456 10.9642 8.23741C10.9642 7.48205 10.9781 6.7247 10.9642 5.96738C10.9563 5.53517 10.6748 5.15057 10.2525 5.03358C9.91939 4.94238 9.60216 5.04349 9.34444 5.25761C9.20368 5.3726 9.06689 5.48957 8.92812 5.60654C8.23225 6.18941 7.53634 6.77228 6.84047 7.35516C6.0415 8.02525 5.24252 8.69538 4.44355 9.36548C4.16797 9.59546 3.8924 9.82741 3.61681 10.0574C3.49785 10.1565 3.35907 10.2517 3.25399 10.3687C2.90506 10.7612 2.90704 11.3857 3.31347 11.7406C3.34122 11.7664 3.37096 11.7902 3.4007 11.814C3.60292 11.9825 3.80513 12.153 4.00735 12.3215C4.76072 12.952 5.51213 13.5844 6.2655 14.2149C7.0288 14.8552 7.79206 15.4956 8.55536 16.136C8.77741 16.3223 9.00145 16.5087 9.2235 16.6951C9.26513 16.7307 9.30677 16.7644 9.3484 16.8001C9.62398 17.0281 9.99076 17.1292 10.3337 16.9905C10.7184 16.8358 10.9583 16.4928 10.9642 16.0765C10.9662 15.9298 10.9642 15.7851 10.9642 15.6383V14.1157V13.7926C10.8314 13.9254 10.7005 14.0562 10.5677 14.1891C11.1724 14.197 11.7751 14.2307 12.3778 14.2843C12.5602 14.3001 12.7406 14.32 12.923 14.3398C13.0182 14.3517 13.1153 14.3636 13.2105 14.3755C13.2343 14.3794 13.258 14.3814 13.2818 14.3854C13.3492 14.3933 13.1827 14.3715 13.268 14.3834C13.3195 14.3913 13.3691 14.3973 13.4206 14.4052C13.827 14.4627 14.2315 14.5341 14.634 14.6173C15.4825 14.7938 16.3191 15.0317 17.1221 15.3588C17.1459 15.3687 17.1717 15.3786 17.1954 15.3885C17.2767 15.4223 17.132 15.3608 17.1954 15.3885C17.247 15.4104 17.2985 15.4341 17.3501 15.456C17.4492 15.4996 17.5483 15.5452 17.6475 15.5928C17.8398 15.6859 18.0281 15.7851 18.2125 15.8901C18.3989 15.9972 18.5813 16.1102 18.7577 16.2311C18.8449 16.2906 18.9322 16.3521 19.0174 16.4175C19.0372 16.4334 19.0591 16.4492 19.0789 16.4631C19.1126 16.4889 19.0392 16.4314 19.0412 16.4353C19.0531 16.4453 19.065 16.4532 19.0749 16.4631C19.1185 16.4968 19.1602 16.5305 19.2018 16.5662C19.523 16.8319 19.8184 17.1292 20.0781 17.4564C20.088 17.4683 20.0959 17.4802 20.1059 17.4901C20.1098 17.494 20.0523 17.4187 20.0761 17.4524C20.092 17.4722 20.1059 17.4921 20.1217 17.5139C20.1534 17.5575 20.1852 17.6011 20.2169 17.6467C20.2764 17.7339 20.3358 17.8232 20.3894 17.9124C20.4984 18.0928 20.5975 18.2811 20.6848 18.4735C20.6947 18.4972 20.7066 18.521 20.7165 18.5448C20.7442 18.6083 20.6828 18.4635 20.7165 18.5448C20.7383 18.5984 20.7581 18.6519 20.7779 18.7054C20.8493 18.8997 21.0496 19.0524 21.2657 18.983C21.456 18.9215 21.6205 18.7034 21.5432 18.4953L21.5433 18.4951Z" fill="#555F62"/>
</svg>
