<svg width="24" height="24" viewBox="0 0 24 24" fill="none" xmlns="http://www.w3.org/2000/svg">
<path d="M21.69 2.71C21.61 2.53 21.47 2.38 21.28 2.3C21.19 2.27 21.1 2.25 21 2.25H12C11.59 2.25 11.25 2.59 11.25 3C11.25 3.41 11.59 3.75 12 3.75H19.19L2.47 20.47C2.18 20.76 2.18 21.24 2.47 21.53C2.62 21.68 2.81 21.75 3 21.75C3.19 21.75 3.38 21.68 3.53 21.53L20.25 4.81V12C20.25 12.41 20.59 12.75 21 12.75C21.41 12.75 21.75 12.41 21.75 12V3C21.75 2.9 21.73 2.81 21.69 2.71Z" fill="#555F62"/>
<path d="M17.4 18.15C17.21 18.15 17.02 18.08 16.87 17.93L6.07001 7.13004C5.78001 6.84004 5.78001 6.36004 6.07001 6.07004C6.36001 5.78004 6.84001 5.78004 7.13001 6.07004L17.93 16.87C18.22 17.16 18.22 17.64 17.93 17.93C17.78 18.08 17.59 18.15 17.4 18.15Z" fill="#555F62"/>
</svg>
