<svg width="24" height="24" viewBox="0 0 24 24" fill="none" xmlns="http://www.w3.org/2000/svg">
<path d="M5.5 10C7.433 10 9 8.433 9 6.5C9 4.567 7.433 3 5.5 3C3.567 3 2 4.567 2 6.5C2 8.433 3.567 10 5.5 10Z" fill="#555F62"/>
<path d="M5.5 21C7.433 21 9 19.433 9 17.5C9 15.567 7.433 14 5.5 14C3.567 14 2 15.567 2 17.5C2 19.433 3.567 21 5.5 21Z" fill="#555F62"/>
<path d="M15.2501 11.98L22.4501 6.60003C22.7801 6.35003 22.8501 5.88003 22.6001 5.55003C22.3501 5.22003 21.8801 5.15003 21.5501 5.40003L14.0001 11.05L8.45008 6.89003C8.12008 6.65003 7.65008 6.71003 7.40008 7.04003C7.15008 7.37003 7.22008 7.84003 7.55008 8.09003L12.7501 11.98L6.85008 16.4C6.52008 16.65 6.45008 17.12 6.70008 17.45C6.85008 17.65 7.07008 17.75 7.30008 17.75C7.46008 17.75 7.61008 17.7 7.75008 17.6L14.0001 12.92L21.5501 18.57C21.6801 18.67 21.8401 18.72 22.0001 18.72C22.2301 18.72 22.4501 18.62 22.6001 18.42C22.8501 18.09 22.7801 17.62 22.4501 17.37L15.2501 11.98Z" fill="#555F62"/>
</svg>
