<svg width="24" height="24" viewBox="0 0 24 24" fill="none" xmlns="http://www.w3.org/2000/svg">
<path d="M12 8.25C10.21 8.25 8.75 9.71 8.75 11.5C8.75 13.29 10.21 14.75 12 14.75C13.79 14.75 15.25 13.29 15.25 11.5C15.25 9.71 13.79 8.25 12 8.25ZM13 11.18C13 11.79 12.67 12.37 12.15 12.68L11.38 13.14C11.26 13.21 11.13 13.25 10.99 13.25C10.74 13.25 10.49 13.12 10.35 12.89C10.14 12.53 10.25 12.07 10.61 11.86L11.37 11.4C11.45 11.35 11.49 11.27 11.49 11.19V10.26C11.49 9.85 11.83 9.51 12.24 9.51C12.65 9.51 13 9.84 13 10.25V11.18Z" fill="#555F62"/>
<path d="M18.54 4.17014L13.04 2.11014C12.47 1.90014 11.54 1.90014 10.97 2.11014L5.46999 4.17014C4.40999 4.57014 3.54999 5.81014 3.54999 6.94014V15.0401C3.54999 15.8501 4.07999 16.9201 4.72999 17.4001L10.23 21.5101C11.2 22.2401 12.79 22.2401 13.76 21.5101L19.26 17.4001C19.91 16.9101 20.44 15.8501 20.44 15.0401V6.94014C20.45 5.81014 19.59 4.57014 18.54 4.17014ZM12 16.2501C9.37999 16.2501 7.24999 14.1201 7.24999 11.5001C7.24999 8.88014 9.37999 6.75014 12 6.75014C14.62 6.75014 16.75 8.88014 16.75 11.5001C16.75 14.1201 14.62 16.2501 12 16.2501Z" fill="#555F62"/>
</svg>
