<svg width="24" height="24" viewBox="0 0 24 24" fill="none" xmlns="http://www.w3.org/2000/svg">
<path d="M16 12.6899V18.0799C16 20.4199 14.44 21.9699 12.11 21.9699H5.89C3.56 21.9699 2 20.4199 2 18.0799V10.3099C2 7.96992 3.56 6.41992 5.89 6.41992H9.72C10.75 6.41992 11.74 6.82992 12.47 7.55992L14.86 9.93992C15.59 10.6699 16 11.6599 16 12.6899Z" fill="#555F62"/>
<path d="M22 8.25021V13.6402C22 15.9702 20.44 17.5302 18.11 17.5302H17V12.6902C17 11.4002 16.48 10.1402 15.57 9.23021L13.18 6.85021C12.27 5.94021 11.01 5.42021 9.72002 5.42021H8.02002C8.20002 3.34021 9.71002 1.97021 11.89 1.97021H15.72C16.75 1.97021 17.74 2.38021 18.47 3.11021L20.86 5.50021C21.59 6.23021 22 7.22021 22 8.25021Z" fill="#555F62"/>
</svg>
