<svg width="24" height="24" viewBox="0 0 24 24" fill="none" xmlns="http://www.w3.org/2000/svg">
<g clip-path="url(#clip0_123160_241042)">
<path d="M15.254 12.5397C15.127 12.2381 14.9048 12.0159 14.619 11.8254C14.3333 11.6508 14 11.4921 13.6032 11.3651C13.2063 11.2381 12.7619 11.127 12.2857 11.0318C11.9048 10.9524 11.619 10.873 11.4603 10.8254C11.3016 10.7778 11.1429 10.7143 10.9841 10.6349C10.8413 10.5556 10.7143 10.4762 10.6349 10.3651C10.5556 10.2699 10.5079 10.1587 10.5079 10.0318C10.5079 9.80954 10.6349 9.63494 10.873 9.47621C11.127 9.31748 11.4762 9.22224 11.9048 9.22224C12.3651 9.22224 12.6984 9.3016 12.9048 9.44446C13.1111 9.60319 13.2857 9.82541 13.4444 10.0953C13.5714 10.3175 13.6825 10.4603 13.7936 10.5556C13.9206 10.6667 14.0794 10.7143 14.3016 10.7143C14.5397 10.7143 14.746 10.6349 14.9206 10.4603C15.0794 10.3016 15.1587 10.1111 15.1587 9.8889C15.1587 9.66668 15.0952 9.44446 14.9682 9.22224C14.8413 9.00002 14.6508 8.77779 14.3968 8.58732C14.1429 8.38097 13.8095 8.22224 13.4127 8.11113C13.0159 7.98414 12.5555 7.93652 12.0159 7.93652C11.3492 7.93652 10.7619 8.03176 10.2698 8.20636C9.7619 8.38097 9.38095 8.65081 9.11111 9.00002C8.84126 9.34922 8.71428 9.74605 8.71428 10.1905C8.71428 10.6508 8.84126 11.0476 9.09523 11.3651C9.3492 11.6826 9.69841 11.9207 10.1111 12.1111C10.5238 12.2857 11.0476 12.4445 11.6667 12.5714C12.127 12.6667 12.4921 12.7619 12.7619 12.8413C13.0159 12.9207 13.2381 13.0318 13.3968 13.1905C13.5556 13.3333 13.619 13.508 13.619 13.746C13.619 14.0318 13.4762 14.2857 13.1746 14.4762C12.873 14.6826 12.4603 14.7778 11.9682 14.7778C11.619 14.7778 11.3175 14.7302 11.1111 14.6191C10.9048 14.5238 10.7302 14.3968 10.619 14.2381C10.4921 14.0794 10.3809 13.873 10.2698 13.6349C10.1746 13.4127 10.0635 13.254 9.92063 13.127C9.77777 13.0159 9.60317 12.9524 9.39682 12.9524C9.14285 12.9524 8.9365 13.0318 8.77777 13.1746C8.61904 13.3333 8.5238 13.508 8.5238 13.7302C8.5238 14.0794 8.65079 14.4286 8.90476 14.7937C9.15872 15.1429 9.49206 15.4445 9.88888 15.6508C10.4444 15.9365 11.1587 16.0953 12.0159 16.0953C12.7302 16.0953 13.3492 15.9841 13.873 15.7778C14.3968 15.5556 14.8095 15.254 15.0794 14.873C15.3492 14.4921 15.4921 14.0476 15.4921 13.5714C15.4921 13.1746 15.4127 12.8254 15.254 12.5397Z" fill="#555F62"/>
<path d="M16.9841 2H7C4.25397 2 2 4.25397 2 7.01587V17C2 19.746 4.25397 22 7 22H16.9841C19.746 22 22 19.746 22 16.9841V7.01587C22 4.25397 19.746 2 16.9841 2ZM14.7937 18.2381C14.2063 18.2381 13.6508 18.0952 13.1587 17.8413C12.8095 17.9048 12.4444 17.9365 12.0635 17.9365C8.77778 17.9365 6.11111 15.3016 6.11111 12.0635C6.11111 11.6667 6.15873 11.2698 6.2381 10.8889C5.93651 10.381 5.76191 9.79365 5.76191 9.1746C5.76191 7.30159 7.30159 5.77778 9.20635 5.77778C9.87302 5.77778 10.5079 5.96825 11.0476 6.30159C11.381 6.25397 11.7143 6.22222 12.0635 6.22222C15.3492 6.22222 18.0159 8.85714 18.0159 12.0952C18.0159 12.5238 17.9683 12.9524 17.873 13.3492C18.0952 13.8095 18.2381 14.3175 18.2381 14.8571C18.2381 16.7143 16.6984 18.2381 14.7937 18.2381Z" fill="#555F62"/>
</g>
<defs>
<clipPath id="clip0_123160_241042">
<rect width="20" height="20" fill="white" transform="translate(2 2)"/>
</clipPath>
</defs>
</svg>
