<svg width="24" height="24" viewBox="0 0 24 24" fill="none" xmlns="http://www.w3.org/2000/svg">
<path d="M14.54 1.87988C13.31 1.87988 12.31 2.87986 12.31 4.10986V8.74988C12.31 9.97988 13.31 10.9799 14.54 10.9799C15.77 10.9799 16.77 9.97988 16.77 8.74988V4.10986C16.77 2.88986 15.77 1.87988 14.54 1.87988Z" fill="#555F62"/>
<path d="M20.18 7.10986C19.11 7.10986 18.24 7.97987 18.24 9.04987V10.6199C18.24 10.8299 18.41 10.9999 18.62 10.9999H20.19C21.26 10.9999 22.13 10.1299 22.13 9.05988C22.13 7.98988 21.25 7.10986 20.18 7.10986Z" fill="#555F62"/>
<path d="M8.5 6.98999H3.86C2.63 6.98999 1.63 7.99 1.63 9.22C1.63 10.45 2.63 11.45 3.86 11.45H8.5C9.73 11.45 10.73 10.45 10.73 9.22C10.73 7.99 9.73 6.98999 8.5 6.98999Z" fill="#555F62"/>
<path d="M8.78999 1.62012C7.71999 1.62012 6.85001 2.49012 6.85001 3.56012C6.85001 4.63012 7.71999 5.50012 8.78999 5.50012H10.36C10.57 5.50012 10.74 5.33012 10.74 5.12012V3.55011C10.73 2.50011 9.85999 1.62012 8.78999 1.62012Z" fill="#555F62"/>
<path d="M9.42999 13.03C8.19999 13.03 7.2 14.03 7.2 15.26V19.9C7.2 21.13 8.19999 22.13 9.42999 22.13C10.66 22.13 11.66 21.13 11.66 19.9V15.26C11.66 14.03 10.66 13.03 9.42999 13.03Z" fill="#555F62"/>
<path d="M5.36 13.03H3.78999C2.71999 13.03 1.85001 13.9 1.85001 14.97C1.85001 16.04 2.71999 16.91 3.78999 16.91C4.85999 16.91 5.73 16.04 5.73 14.97V13.4C5.73 13.2 5.56 13.03 5.36 13.03Z" fill="#555F62"/>
<path d="M20.11 12.5701H15.47C14.24 12.5701 13.24 13.57 13.24 14.8C13.24 16.03 14.24 17.0301 15.47 17.0301H20.11C21.34 17.0301 22.34 16.03 22.34 14.8C22.34 13.57 21.34 12.5701 20.11 12.5701Z" fill="#555F62"/>
<path d="M15.18 18.47H13.61C13.4 18.47 13.23 18.64 13.23 18.85V20.42C13.23 21.49 14.1 22.36 15.17 22.36C16.24 22.36 17.11 21.49 17.11 20.42C17.12 19.34 16.25 18.47 15.18 18.47Z" fill="#555F62"/>
</svg>
