<svg width="24" height="24" viewBox="0 0 24 24" fill="none" xmlns="http://www.w3.org/2000/svg">
<path d="M20 3.5H5.49998C5.18998 3.5 4.88999 3.65 4.69999 3.9L3.19999 5.9C2.70999 6.56 3.17998 7.5 3.99998 7.5H18.5C18.81 7.5 19.11 7.35 19.3 7.1L20.8 5.1C21.29 4.44 20.82 3.5 20 3.5Z" fill="#555F62"/>
<path d="M3.99998 10H18.5C18.81 10 19.11 10.15 19.3 10.4L20.8 12.4C21.29 13.06 20.82 14 20 14H5.49998C5.18998 14 4.88999 13.85 4.69999 13.6L3.19999 11.6C2.70999 10.94 3.17998 10 3.99998 10Z" fill="#555F62"/>
<path d="M20 16.5H5.49998C5.18998 16.5 4.88999 16.65 4.69999 16.9L3.19999 18.9C2.70999 19.56 3.17998 20.5 3.99998 20.5H18.5C18.81 20.5 19.11 20.35 19.3 20.1L20.8 18.1C21.29 17.44 20.82 16.5 20 16.5Z" fill="#555F62"/>
</svg>
