<svg width="24" height="24" viewBox="0 0 24 24" fill="none" xmlns="http://www.w3.org/2000/svg">
<path d="M22.66 4.64C22.46 4.28 22 4.14 21.64 4.34L4.70002 13.66C4.58002 13.12 4.5 12.56 4.5 12C4.5 7.86 7.86 4.5 12 4.5C13.41 4.5 14.78 4.89 15.96 5.63C16.31 5.85 16.77 5.74 16.99 5.39C17.21 5.04 17.1 4.58 16.75 4.36C15.33 3.47 13.69 3 12 3C7.04 3 3 7.04 3 12C3 12.81 3.11001 13.61 3.32001 14.39C3.32001 14.4 3.33002 14.4 3.33002 14.41L1.64002 15.34C1.28002 15.54 1.14003 16 1.34003 16.36C1.48003 16.61 1.73 16.75 2 16.75C2.12 16.75 2.24999 16.72 2.35999 16.66L22.36 5.66C22.72 5.46 22.86 5 22.66 4.64Z" fill="#555F62"/>
<path d="M22.66 8.14009C22.46 7.78009 22 7.64009 21.64 7.84009L19.53 9.00009C19.5 9.02009 19.46 9.03009 19.43 9.06009L1.64002 18.8401C1.28002 19.0401 1.14003 19.5001 1.34003 19.8601C1.48003 20.1101 1.73 20.2501 2 20.2501C2.12 20.2501 2.24999 20.2201 2.35999 20.1601L19.39 10.7901C19.45 11.1901 19.5 11.5901 19.5 12.0001C19.5 16.1401 16.14 19.5001 12 19.5001C10.58 19.5001 9.21002 19.1001 8.02002 18.3601C7.67002 18.1401 7.20999 18.2501 6.98999 18.6001C6.76999 18.9501 6.86998 19.4101 7.22998 19.6301C8.65998 20.5301 10.31 21.0001 12.01 21.0001C16.97 21.0001 21.01 16.9601 21.01 12.0001C21.01 11.3301 20.91 10.6801 20.77 10.0401L22.37 9.1601C22.72 8.9601 22.86 8.50009 22.66 8.14009Z" fill="#555F62"/>
</svg>
