<svg width="24" height="24" viewBox="0 0 24 24" fill="none" xmlns="http://www.w3.org/2000/svg">
<path d="M16.1699 10.0601H7.82995C6.64995 10.0601 6.23995 9.27007 6.92995 8.31007L11.1 2.47007C11.59 1.77007 12.4099 1.77007 12.8999 2.47007L17.0699 8.31007C17.7599 9.27007 17.3499 10.0601 16.1699 10.0601Z" fill="#555F62"/>
<path d="M17.59 18.0001H6.40997C4.82997 18.0001 4.28997 16.9501 5.21997 15.6701L9.20997 10.0601H14.79L18.78 15.6701C19.71 16.9501 19.17 18.0001 17.59 18.0001Z" fill="#555F62"/>
<path d="M12.75 18V22C12.75 22.41 12.41 22.75 12 22.75C11.59 22.75 11.25 22.41 11.25 22V18H12.75Z" fill="#555F62"/>
</svg>
