<svg width="24" height="24" viewBox="0 0 24 24" fill="none" xmlns="http://www.w3.org/2000/svg">
<path d="M11.2501 3.9001V12.9201C11.2501 13.2501 11.0901 13.5501 10.8201 13.7401L3.61005 18.7901C3.02005 19.2001 2.18005 18.8801 2.05005 18.1701C1.90005 17.3101 2.10005 16.3001 2.70005 15.2101L5.82005 9.6001L8.76005 4.3101C8.99005 3.9001 9.24005 3.5401 9.50005 3.2301C10.1001 2.5301 11.2501 2.9801 11.2501 3.9001Z" fill="#555F62"/>
<path d="M20.39 18.7901L13.18 13.7401C12.91 13.5501 12.75 13.2501 12.75 12.9201V3.9001C12.75 2.9801 13.9 2.5301 14.5 3.2301C14.76 3.5401 15.01 3.9001 15.24 4.3101L18.18 9.6001L21.3 15.2101C21.9 16.3001 22.1 17.3101 21.95 18.1701C21.82 18.8801 20.98 19.2001 20.39 18.7901Z" fill="#555F62"/>
<path d="M5.26006 19.14L11.4101 15.04C11.7401 14.82 12.2801 14.82 12.6101 15.04L18.7601 19.14C20.3901 20.23 20.1201 21.12 18.1601 21.12H5.85006C3.90006 21.11 3.63006 20.22 5.26006 19.14Z" fill="#555F62"/>
</svg>
