<svg width="24" height="24" viewBox="0 0 24 24" fill="none" xmlns="http://www.w3.org/2000/svg">
<path d="M10.05 2.85003L1.25999 11.64C1.05999 11.84 1.05999 12.15 1.25999 12.35L10.05 21.14C10.37 21.45 10.9 21.23 10.9 20.79V18.2C10.9 18.07 10.85 17.94 10.75 17.85L5.24998 12.35C5.04998 12.15 5.04998 11.84 5.24998 11.64L10.75 6.14004C10.84 6.05004 10.9 5.92003 10.9 5.79003V3.20004C10.9 2.76004 10.36 2.54003 10.05 2.85003Z" fill="#555F62"/>
<path d="M13.75 2.85003L22.54 11.64C22.74 11.84 22.74 12.15 22.54 12.35L13.75 21.14C13.44 21.45 12.9 21.23 12.9 20.79V18.2C12.9 18.07 12.95 17.94 13.05 17.85L18.55 12.35C18.75 12.15 18.75 11.84 18.55 11.64L13.05 6.14004C12.96 6.05004 12.9 5.92003 12.9 5.79003V3.20004C12.9 2.76004 13.44 2.54003 13.75 2.85003Z" fill="#555F62"/>
<path d="M10.05 9.85003L8.25999 11.64C8.05999 11.84 8.05999 12.15 8.25999 12.35L10.05 14.14C10.37 14.45 10.9 14.23 10.9 13.79V10.2C10.9 9.76004 10.36 9.54003 10.05 9.85003Z" fill="#555F62"/>
</svg>
