<svg width="24" height="24" viewBox="0 0 24 24" fill="none" xmlns="http://www.w3.org/2000/svg">
<path d="M19.4 10.53C19.92 10.43 20.28 11.02 19.96 11.44L13.01 20.29C12.66 20.74 11.94 20.45 12 19.89L12.7 12.29C12.72 12.04 12.91 11.83 13.16 11.78L19.4 10.53Z" fill="#555F62"/>
<path d="M21.64 7.68995C21.86 7.92995 21.74 8.31996 21.43 8.38996L12.99 10.08C12.44 10.19 12.08 9.51995 12.48 9.11995L17.5 4.09995C17.73 3.86995 18.1 3.87995 18.32 4.10995L21.64 7.68995Z" fill="#555F62"/>
<path d="M14.69 3.19006C15.16 3.25006 15.35 3.82006 15.02 4.16006L11.46 7.72006C11.25 7.93006 10.91 7.94006 10.68 7.74006L5.34 2.99006C4.92 2.62006 5.23995 1.93006 5.78995 2.00006L14.69 3.19006Z" fill="#555F62"/>
<path d="M10.72 10.0702C10.99 10.3102 11.12 10.6602 11.1 11.0102L10.24 21.4702C10.19 22.0702 9.36003 22.1902 9.14003 21.6302L2.28999 3.96018C2.06999 3.40018 2.75003 2.93018 3.20003 3.33018L10.72 10.0702Z" fill="#555F62"/>
</svg>
