<svg width="24" height="24" viewBox="0 0 24 24" fill="none" xmlns="http://www.w3.org/2000/svg">
<path d="M18 6.34009C17.86 6.34009 17.42 6.3701 17.42 6.7901C17.42 7.0801 17.64 7.25009 18 7.25009C18.36 7.25009 18.58 7.0801 18.58 6.7901C18.58 6.4601 18.28 6.34009 18 6.34009Z" fill="#555F62"/>
<path d="M18 5.51001C18.27 5.51001 18.44 5.36 18.44 5.13C18.44 4.85 18.21 4.76001 18 4.76001C17.79 4.76001 17.56 4.86 17.56 5.13C17.56 5.36 17.73 5.51001 18 5.51001Z" fill="#555F62"/>
<path d="M18 2C15.9 2 14.19 3.61 14.02 5.66C14 5.77 14 5.89 14 6C14 8.21 15.79 10 18 10C18.35 10 18.68 9.96 19 9.87C20.73 9.43 22 7.86 22 6C22 3.79 20.21 2 18 2ZM18 8.20001C17.01 8.20001 16.4 7.70001 16.4 6.89001C16.4 6.50001 16.58 6.15 16.9 5.91C16.66 5.7 16.53 5.40999 16.53 5.07999C16.53 4.30999 17.12 3.79999 17.99 3.79999C18.86 3.79999 19.45 4.31999 19.45 5.07999C19.45 5.40999 19.33 5.7 19.08 5.91C19.41 6.14 19.59 6.49001 19.59 6.89001C19.6 7.70001 18.99 8.20001 18 8.20001Z" fill="#555F62"/>
<path d="M18 11.4999C16.85 11.4999 15.78 11.1499 14.9 10.5399C14.83 10.4899 14.74 10.5399 14.74 10.6199L14.75 15.4399C14.75 15.8599 14.41 16.1899 14 16.1899C13.59 16.1899 13.25 15.8599 13.25 15.4399V10.4999C13.25 10.1699 13.47 9.88992 13.77 9.78992C13.85 9.75992 13.9 9.6499 13.84 9.5899C13.01 8.6299 12.5 7.37992 12.5 6.00992C12.5 5.83992 12.51 5.6599 12.53 5.4899C12.53 5.4499 12.54 5.41991 12.54 5.37991C12.57 5.14991 12.45 4.9299 12.25 4.8299L11.35 4.3999C10.81 4.1499 10.19 4.1499 9.64999 4.3999L3.14999 7.4599C2.44999 7.7899 2 8.4899 2 9.2699V16.7299C2 17.5099 2.44999 18.2099 3.14999 18.5399L9.64999 21.5999C10.19 21.8499 10.81 21.8499 11.35 21.5999L17.85 18.5399C18.55 18.2099 19 17.5099 19 16.7299V12.0199C19 11.7099 18.71 11.4699 18.4 11.4899C18.27 11.4999 18.14 11.4999 18 11.4999ZM11.75 13.4999C11.75 15.0199 10.52 16.2499 9 16.2499C7.48 16.2499 6.25 15.0199 6.25 13.4999V10.4999C6.25 10.0899 6.59 9.74991 7 9.74991C7.41 9.74991 7.75 10.0899 7.75 10.4999V13.4999C7.75 14.1899 8.31 14.7499 9 14.7499C9.69 14.7499 10.25 14.1899 10.25 13.4999V10.4999C10.25 10.0899 10.59 9.74991 11 9.74991C11.41 9.74991 11.75 10.0899 11.75 10.4999V13.4999Z" fill="#555F62"/>
</svg>
