<svg width="24" height="24" viewBox="0 0 24 24" fill="none" xmlns="http://www.w3.org/2000/svg">
<path d="M12 22.7501C11.75 22.7501 11.51 22.6201 11.37 22.4101L2.32999 8.41012C2.10999 8.06012 2.20999 7.60011 2.54999 7.37011C2.89999 7.15011 3.36 7.24011 3.59 7.59011L11.99 20.6101L20.36 7.59011C20.58 7.24011 21.05 7.1401 21.4 7.3601C21.75 7.5801 21.85 8.05011 21.63 8.40011L12.63 22.4001C12.49 22.6201 12.26 22.7501 12 22.7501Z" fill="#555F62"/>
<path d="M3.92002 4H5.74C5.91 4 6.06001 4.08 6.16001 4.22L11.6 12.37C11.8 12.67 12.23 12.67 12.43 12.37L17.87 4.22C17.96 4.08 18.12 4 18.29 4H20.11C20.51 4 20.74 4.43999 20.53 4.76999L12.45 17.35C12.25 17.66 11.81 17.66 11.61 17.35L3.53001 4.76999C3.28001 4.43999 3.52002 4 3.92002 4Z" fill="#555F62"/>
<path d="M9.42001 3.5C8.97001 3.34 8.57 3.85 8.84 4.25L11.59 8.38C11.79 8.68 12.22 8.68 12.42 8.38L15.17 4.26001C15.44 3.86001 15.04 3.35001 14.59 3.51001L13.21 4V2.5C13.21 2.22 12.99 2 12.71 2H11.31C11.03 2 10.81 2.22 10.81 2.5V4L9.42001 3.5Z" fill="#555F62"/>
</svg>
