<svg width="24" height="24" viewBox="0 0 24 24" fill="none" xmlns="http://www.w3.org/2000/svg">
<path d="M16.86 5H19.21C19.39 5 19.55 5.1 19.64 5.25L22.05 9.45C22.14 9.6 22.14 9.79 22.05 9.94L17.41 18.24C17.22 18.58 16.74 18.58 16.54 18.25L15.28 16.14C15.19 15.98 15.19 15.79 15.28 15.64L18.54 9.94C18.63 9.79 18.63 9.6 18.54 9.44L16.41 5.74001C16.24 5.42001 16.48 5 16.86 5Z" fill="#555F62"/>
<path d="M9.85998 5H12.21C12.39 5 12.55 5.1 12.64 5.25L15.05 9.45C15.14 9.6 15.14 9.79 15.05 9.94L10.41 18.24C10.22 18.58 9.74 18.58 9.54 18.25L8.27999 16.14C8.18999 15.98 8.18999 15.79 8.27999 15.64L11.54 9.94C11.63 9.79 11.63 9.6 11.54 9.44L9.41 5.74001C9.24 5.42001 9.47998 5 9.85998 5Z" fill="#555F62"/>
<path d="M1.79999 5H5.01001C5.19001 5 5.36001 5.1 5.45001 5.25L7.87 9.53999C7.96 9.68999 7.96 9.87999 7.87 10.04L6.75 11.96C6.56 12.29 6.08001 12.29 5.89001 11.96L1.79999 5Z" fill="#555F62"/>
</svg>
