<svg width="24" height="24" viewBox="0 0 24 24" fill="none" xmlns="http://www.w3.org/2000/svg">
<path d="M15.17 13.7699C15.17 14.3299 15.63 14.7899 16.19 14.7899H17.21V12.7599H16.19C15.63 12.7499 15.17 13.2099 15.17 13.7699Z" fill="#555F62"/>
<path d="M16.19 2H7.82001C4.18001 2 2.00999 4.17 2.00999 7.81V16.18C2.00999 19.82 4.18001 21.99 7.82001 21.99H16.19C19.83 21.99 22 19.82 22 16.18V7.81C22 4.17 19.83 2 16.19 2ZM12.28 15.06C12.54 15.38 12.49 15.86 12.16 16.11C12.02 16.22 11.86 16.27 11.69 16.27C11.47 16.27 11.25 16.17 11.1 15.99L8.86 13.19L6.62 15.99C6.47 16.17 6.25 16.27 6.03 16.27C5.87 16.27 5.7 16.22 5.56 16.11C5.24 15.85 5.18 15.38 5.44 15.06L7.89 12L5.44 8.94C5.18 8.62 5.23 8.14001 5.56 7.89001C5.88 7.63001 6.36 7.68001 6.61 8.01001L8.85001 10.81L11.09 8.01001C11.35 7.69001 11.82 7.63001 12.14 7.89001C12.46 8.15001 12.52 8.62 12.26 8.94L9.81 12L12.28 15.06ZM18.71 15.53C18.71 15.94 18.37 16.28 17.96 16.28H16.19C14.8 16.28 13.67 15.15 13.67 13.76C13.67 12.37 14.8 11.24 16.19 11.24H17.21V8.45999C17.21 8.04999 17.55 7.70999 17.96 7.70999C18.37 7.70999 18.71 8.04999 18.71 8.45999V15.53Z" fill="#555F62"/>
</svg>
