<svg width="24" height="24" viewBox="0 0 24 24" fill="none" xmlns="http://www.w3.org/2000/svg">
<path d="M5.46 2H4.04996C3.11996 2 2.64997 3.13 3.30997 3.79L9.03995 9.52C10.68 11.16 13.3299 11.16 14.9699 9.52L20.7 3.79C21.36 3.13 20.89 2 19.96 2H18.55C17.72 2 16.92 2.33 16.33 2.92L12.75 6.5C12.34 6.91 11.68 6.91 11.27 6.5L7.68998 2.92C7.08998 2.33 6.29 2 5.46 2Z" fill="#555F62"/>
<path d="M5.46 21.97H4.04996C3.11996 21.97 2.64997 20.84 3.30997 20.18L9.03995 14.45C10.68 12.81 13.3299 12.81 14.9699 14.45L20.7 20.18C21.36 20.84 20.89 21.97 19.96 21.97H18.55C17.72 21.97 16.92 21.64 16.33 21.05L12.75 17.47C12.34 17.06 11.68 17.06 11.27 17.47L7.68998 21.05C7.08998 21.64 6.29 21.97 5.46 21.97Z" fill="#555F62"/>
</svg>
