<svg width="14" height="15" viewBox="0 0 14 15" fill="none" xmlns="http://www.w3.org/2000/svg">
<path d="M7.57311 1.10525C7.35506 0.648235 6.70948 0.634629 6.47237 1.08205C6.25655 1.48932 6.54784 1.9807 7.00871 1.98683C7.4654 1.9929 7.76978 1.51746 7.57311 1.10525Z" fill="white"/>
<path d="M4.10965 1.72266C3.69136 1.45025 3.15035 1.81123 3.24131 2.30205C3.30763 2.65988 3.68867 2.86387 4.02322 2.72065C4.44046 2.54203 4.48997 1.97035 4.10965 1.72266Z" fill="white"/>
<path d="M2.2628 4.14141C1.8976 4.10051 1.70638 4.56287 1.99378 4.79187C2.14177 4.9098 2.35522 4.89558 2.48627 4.75908C2.69647 4.54013 2.56444 4.17519 2.2628 4.14141Z" fill="white"/>
<path d="M0.552649 7.21338C0.324132 7.32238 0.3173 7.64518 0.541 7.76375C0.744634 7.87169 0.990352 7.72604 0.993414 7.49559C0.996448 7.26726 0.758752 7.11507 0.552649 7.21338Z" fill="white"/>
<path d="M1.72277 9.8903C1.45033 10.3086 1.81132 10.8496 2.30214 10.7586C2.65993 10.6923 2.8639 10.3113 2.72071 9.97676C2.54212 9.55953 1.97046 9.51 1.72277 9.8903Z" fill="white"/>
<path d="M3.29382 12.6881C3.18494 13.1742 3.71684 13.5503 4.13885 13.2855C4.51276 13.0509 4.48149 12.4963 4.08357 12.3052C3.75845 12.1491 3.37264 12.3361 3.29382 12.6881Z" fill="white"/>
<path d="M6.4267 13.8946C6.64471 14.3516 7.29036 14.3653 7.52749 13.9178C7.74336 13.5105 7.45197 13.019 6.99102 13.013C6.5344 13.007 6.23009 13.4824 6.4267 13.8946Z" fill="white"/>
<path d="M9.89031 13.2773C10.3086 13.5497 10.8496 13.1887 10.7586 12.6979C10.6923 12.3401 10.3113 12.1361 9.97673 12.2793C9.5595 12.458 9.51 13.0296 9.89031 13.2773Z" fill="white"/>
<path d="M11.6881 10.7062C12.1742 10.8151 12.5503 10.2832 12.2855 9.86115C12.0509 9.48724 11.4963 9.51851 11.3052 9.91643C11.1491 10.2415 11.3361 10.6274 11.6881 10.7062Z" fill="white"/>
<path d="M13.4473 7.78659C13.6758 7.67756 13.6826 7.35473 13.4589 7.23619C13.2552 7.12828 13.0095 7.27397 13.0065 7.50444C13.0035 7.73276 13.2412 7.88492 13.4473 7.78659Z" fill="white"/>
<path d="M11.9776 4.78498C12.2737 4.55761 12.0882 4.08441 11.7165 4.11883C11.4156 4.14667 11.2714 4.50227 11.4679 4.73177C11.5966 4.88216 11.8205 4.90554 11.9776 4.78498Z" fill="white"/>
<path d="M10.7062 2.31203C10.815 1.82588 10.2831 1.44984 9.86112 1.71463C9.48723 1.94925 9.51855 2.50389 9.91649 2.69491C10.2416 2.85096 10.6273 2.66392 10.7062 2.31203Z" fill="white"/>
<path d="M9.89604 10.2497C11.498 8.63726 11.498 6.0229 9.89604 4.41042C8.2941 2.79793 5.69684 2.79793 4.0949 4.41042C2.49296 6.0229 2.49296 8.63726 4.0949 10.2497C5.69684 11.8622 8.2941 11.8622 9.89604 10.2497Z" fill="white"/>
</svg>
